<svg width="500" height="500" xmlns="http://www.w3.org/2000/svg">
<polygon points="489.395,251.275 489.395,257.38 490.595,257.38 490.595,263.44 489.75,263.44 489.75,269.375 487.645,269.375 487.645,275.66 489.645,275.66 489.645,281.53 487.47,281.53 487.47,287.255 484.815,287.255 484.815,293.6 486.005,293.6 486.005,299.17 482.955,299.17 482.955,305.62 484.0,305.62 484.0,311.035 480.645,311.035 480.645,317.875 482.52,317.875 482.52,322.935 478.185,322.935 478.185,328.19 474.82,328.19 474.82,334.275 473.87,334.275 473.87,340.64 473.445,340.64 473.445,346.535 471.68,346.535 471.68,352.19 469.315,352.19 469.315,356.79 464.795,356.79 464.795,361.58 460.855,361.58 460.855,367.765 459.525,367.765 459.525,372.85 456.165,372.85 456.165,378.205 453.265,378.205 453.265,384.45 451.65,384.45 451.65,387.98 445.995,387.98 445.995,393.27 442.94,393.27 442.94,398.02 439.13,398.02 439.13,402.55 435.06,402.55 435.06,407.89 431.945,407.89 431.945,411.73 427.1,411.73 427.1,416.3 423.085,416.3 423.085,420.965 419.145,420.965 419.145,426.09 415.605,426.09 415.605,429.585 410.515,429.585 410.515,433.365 405.72,433.365 405.72,437.285 401.05,437.285 401.05,440.175 395.59,440.175 395.59,444.585 391.29,444.585 391.29,447.88 386.165,447.88 386.165,452.285 381.77,452.285 381.77,453.94 375.605,453.94 375.605,456.51 370.085,456.51 370.085,462.435 366.43,462.435 366.43,465.29 360.995,465.29 360.995,468.11 355.545,468.11 355.545,466.38 348.025,466.38 348.025,471.525 343.665,471.525 343.665,474.95 338.465,474.95 338.465,473.455 331.4,473.455 331.4,475.815 325.84,475.815 325.84,481.715 321.34,481.715 321.34,479.33 314.295,479.33 314.295,481.94 308.73,481.94 308.73,483.32 302.83,483.32 302.83,487.33 297.45,487.33 297.45,487.665 291.285,487.665 291.285,488.82 285.28,488.82 285.28,490.475 279.32,490.475 279.32,489.84 273.095,489.84 273.095,490.93 267.05,490.93 267.05,487.54 260.77,487.54 260.77,488.785 254.77,488.785 254.77,489.65 248.715,489.65 248.715,491.93 242.575,491.93 242.575,490.375 236.52,490.375 236.52,488.865 230.525,488.865 230.525,489.1 224.39,489.1 224.39,488.79 218.285,488.79 218.285,485.97 212.555,485.97 212.555,487.965 206.035,487.965 206.035,482.84 200.85,482.84 200.85,485.17 194.1,485.17 194.1,482.22 188.545,482.22 188.545,478.645 183.25,478.645 183.25,478.95 176.815,478.95 176.815,478.275 170.605,478.275 170.605,475.735 165.02,475.735 165.02,472.27 159.83,472.27 159.83,469.495 154.41,469.495 154.41,469.67 147.64,469.67 147.64,463.795 143.705,463.795 143.705,462.66 137.46,462.66 137.46,460.99 131.41,460.99 131.41,455.365 127.625,455.365 127.625,454.1 121.26,454.1 121.26,450.53 116.295,450.53 116.295,444.715 112.92,444.715 112.92,441.65 107.685,441.65 107.685,440.0 101.295,440.0 101.295,434.355 98.025,434.355 98.025,431.965 92.085,431.965 92.085,425.38 89.835,425.38 89.835,422.165 84.58,422.165 84.58,419.525 78.65,419.525 78.65,413.065 76.605,413.065 76.605,411.035 69.825,411.035 69.825,403.765 68.935,403.765 68.935,400.9 62.9,400.9 62.9,395.445 60.005,395.445 60.005,391.87 54.615,391.87 54.615,385.195 53.52,385.195 53.52,381.76 47.725,381.76 47.725,374.675 47.565,374.675 47.565,369.74 44.08,369.74 44.08,366.41 37.6,366.41 37.6,361.12 34.47,361.12 34.47,354.68 33.665,354.68 33.665,348.47 32.625,348.47 32.625,344.015 27.645,344.015 27.645,338.695 24.45,338.695 24.45,332.51 23.5,332.51 23.5,327.145 20.295,327.145 20.295,320.75 20.2,320.75 20.2,314.315 20.585,314.315 20.585,308.855 17.56,308.855 17.56,303.26 14.765,303.26 14.765,297.445 12.7,297.445 12.7,290.815 15.025,290.815 15.025,285.185 11.805,285.185 11.805,278.95 12.54,278.95 12.54,272.84 12.805,272.84 12.805,266.805 12.545,266.805 12.545,260.945 8.625,260.945 8.625,254.825 8.65,254.825 8.65,251.19 473.55,251.19 473.55,242.635 10.04,242.635 10.04,236.67 12.35,236.67 12.35,230.415 9.84,230.415 9.84,224.465 11.56,224.465 11.56,218.255 10.95,218.255 10.95,212.26 12.145,212.26 12.145,205.995 11.84,205.995 11.84,200.13 13.745,200.13 13.745,194.43 16.21,194.43 16.21,188.53 17.715,188.53 17.715,182.985 20.445,182.985 20.445,176.38 19.685,176.38 19.685,171.28 23.66,171.28 23.66,166.2 27.39,166.2 27.39,160.095 28.37,160.095 28.37,154.15 29.895,154.15 29.895,148.505 32.185,148.505 32.185,144.09 36.975,144.09 36.975,137.35 37.13,137.35 37.13,133.345 42.455,133.345 42.455,126.64 42.985,126.64 42.985,122.31 47.555,122.31 47.555,117.875 51.835,117.875 51.835,112.135 54.165,112.135 54.165,108.225 59.075,108.225 59.075,101.425 60.16,101.425 60.16,96.95 64.335,96.95 64.335,91.735 67.625,91.735 67.625,89.67 74.435,89.67 74.435,85.295 78.575,85.295 78.575,79.56 81.37,79.56 81.37,74.54 84.99,74.54 84.99,71.215 90.2,71.215 90.2,65.995 93.735,65.995 93.735,64.45 100.345,64.45 100.345,58.485 103.385,58.485 103.385,55.715 108.925,55.715 108.925,52.805 114.305,52.805 114.305,48.645 118.835,48.645 118.835,47.295 125.15,47.295 125.15,43.045 129.655,43.045 129.655,37.74 133.665,37.74 133.665,34.72 139.005,34.72 139.005,35.265 146.085,35.265 146.085,32.68 151.55,32.68 151.55,29.15 156.62,29.15 156.62,25.5 161.71,25.5 161.71,26.445 168.56,26.445 168.56,23.62 173.965,23.62 173.965,20.7 179.4,20.7 179.4,21.15 185.835,21.15 185.835,19.25 191.565,19.25 191.565,17.795 197.42,17.795 197.42,14.805 202.97,14.805 202.97,14.33 209.055,14.33 209.055,13.325 215.035,13.325 215.035,13.365 221.145,13.365 221.145,10.095 226.895,10.095 226.895,9.42 232.97,9.42 232.97,11.655 239.185,11.655 239.185,11.85 245.235,11.85 245.235,8.965 251.285,8.965 251.285,10.34 257.35,10.34 257.35,10.085 263.45,10.085 263.45,11.275 269.46,11.275 269.46,9.29 275.775,9.29 275.775,11.23 281.705,11.23 281.705,11.91 287.775,11.91 287.775,12.525 293.87,12.525 293.87,14.905 299.62,14.905 299.62,15.69 305.69,15.69 305.69,16.95 311.67,16.95 311.67,19.74 317.215,19.74 317.215,19.635 323.63,19.635 323.63,22.15 329.24,22.15 329.24,24.21 334.995,24.21 334.995,27.61 340.21,27.61 340.21,31.91 344.97,31.91 344.97,32.77 351.215,32.77 351.215,35.725 356.525,35.725 356.525,35.95 363.265,35.95 363.265,39.615 368.245,39.615 368.245,42.34 373.735,42.34 373.735,46.37 378.435,46.37 378.435,49.22 383.865,49.22 383.865,54.685 387.495,54.685 387.495,58.035 392.545,58.035 392.545,59.14 399.37,59.14 399.37,65.425 402.145,65.425 402.145,67.255 408.585,67.255 408.585,73.015 411.625,73.015 411.625,78.225 415.035,78.225 415.035,81.08 420.73,81.08 420.73,85.785 424.61,85.785 424.61,90.725 428.195,90.725 428.195,93.565 434.205,93.565 434.205,99.075 437.12,99.075 437.12,103.965 440.75,103.965 440.75,108.895 444.325,108.895 444.325,115.255 445.81,115.255 445.81,117.655 453.16,117.655 453.16,124.96 453.01,124.96 453.01,130.37 455.725,130.37 455.725,134.36 460.98,134.36 460.98,138.875 465.53,138.875 465.53,144.915 467.155,144.915 467.155,151.735 466.9,151.735 466.9,157.445 468.89,157.445 468.89,162.685 472.015,162.685 472.015,167.15 477.42,167.15 477.42,173.785 476.915,173.785 476.915,179.925 477.59,179.925 477.59,185.395 480.425,185.395 480.425,190.48 485.035,190.48 485.035,197.385 482.34,197.385 482.34,202.965 485.225,202.965 485.225,209.0 485.98,209.0 485.98,214.935 487.345,214.935 487.345,220.695 490.32,220.695 490.32,226.835 490.52,226.835 490.52,233.15 487.995,233.15 487.995,239.06 491.155,239.06 491.155,245.235 488.22,245.235 488.22,251.275" fill="lightblue" stroke="black" />
<circle cx="489.395" cy="251.275" fill="black" stroke="none" r="2"/>
<circle cx="489.395" cy="257.38" fill="black" stroke="none" r="2"/>
<circle cx="490.595" cy="257.38" fill="black" stroke="none" r="2"/>
<circle cx="490.595" cy="263.44" fill="black" stroke="none" r="2"/>
<circle cx="489.75" cy="263.44" fill="black" stroke="none" r="2"/>
<circle cx="489.75" cy="269.375" fill="black" stroke="none" r="2"/>
<circle cx="487.645" cy="269.375" fill="black" stroke="none" r="2"/>
<circle cx="487.645" cy="275.66" fill="black" stroke="none" r="2"/>
<circle cx="489.645" cy="275.66" fill="black" stroke="none" r="2"/>
<circle cx="489.645" cy="281.53" fill="black" stroke="none" r="2"/>
<circle cx="487.47" cy="281.53" fill="black" stroke="none" r="2"/>
<circle cx="487.47" cy="287.255" fill="black" stroke="none" r="2"/>
<circle cx="484.815" cy="287.255" fill="black" stroke="none" r="2"/>
<circle cx="484.815" cy="293.6" fill="black" stroke="none" r="2"/>
<circle cx="486.005" cy="293.6" fill="black" stroke="none" r="2"/>
<circle cx="486.005" cy="299.17" fill="black" stroke="none" r="2"/>
<circle cx="482.955" cy="299.17" fill="black" stroke="none" r="2"/>
<circle cx="482.955" cy="305.62" fill="black" stroke="none" r="2"/>
<circle cx="484.0" cy="305.62" fill="black" stroke="none" r="2"/>
<circle cx="484.0" cy="311.035" fill="black" stroke="none" r="2"/>
<circle cx="480.645" cy="311.035" fill="black" stroke="none" r="2"/>
<circle cx="480.645" cy="317.875" fill="black" stroke="none" r="2"/>
<circle cx="482.52" cy="317.875" fill="black" stroke="none" r="2"/>
<circle cx="482.52" cy="322.935" fill="black" stroke="none" r="2"/>
<circle cx="478.185" cy="322.935" fill="black" stroke="none" r="2"/>
<circle cx="478.185" cy="328.19" fill="black" stroke="none" r="2"/>
<circle cx="474.82" cy="328.19" fill="black" stroke="none" r="2"/>
<circle cx="474.82" cy="334.275" fill="black" stroke="none" r="2"/>
<circle cx="473.87" cy="334.275" fill="black" stroke="none" r="2"/>
<circle cx="473.87" cy="340.64" fill="black" stroke="none" r="2"/>
<circle cx="473.445" cy="340.64" fill="black" stroke="none" r="2"/>
<circle cx="473.445" cy="346.535" fill="black" stroke="none" r="2"/>
<circle cx="471.68" cy="346.535" fill="black" stroke="none" r="2"/>
<circle cx="471.68" cy="352.19" fill="black" stroke="none" r="2"/>
<circle cx="469.315" cy="352.19" fill="black" stroke="none" r="2"/>
<circle cx="469.315" cy="356.79" fill="black" stroke="none" r="2"/>
<circle cx="464.795" cy="356.79" fill="black" stroke="none" r="2"/>
<circle cx="464.795" cy="361.58" fill="black" stroke="none" r="2"/>
<circle cx="460.855" cy="361.58" fill="black" stroke="none" r="2"/>
<circle cx="460.855" cy="367.765" fill="black" stroke="none" r="2"/>
<circle cx="459.525" cy="367.765" fill="black" stroke="none" r="2"/>
<circle cx="459.525" cy="372.85" fill="black" stroke="none" r="2"/>
<circle cx="456.165" cy="372.85" fill="black" stroke="none" r="2"/>
<circle cx="456.165" cy="378.205" fill="black" stroke="none" r="2"/>
<circle cx="453.265" cy="378.205" fill="black" stroke="none" r="2"/>
<circle cx="453.265" cy="384.45" fill="black" stroke="none" r="2"/>
<circle cx="451.65" cy="384.45" fill="black" stroke="none" r="2"/>
<circle cx="451.65" cy="387.98" fill="black" stroke="none" r="2"/>
<circle cx="445.995" cy="387.98" fill="black" stroke="none" r="2"/>
<circle cx="445.995" cy="393.27" fill="black" stroke="none" r="2"/>
<circle cx="442.94" cy="393.27" fill="black" stroke="none" r="2"/>
<circle cx="442.94" cy="398.02" fill="black" stroke="none" r="2"/>
<circle cx="439.13" cy="398.02" fill="black" stroke="none" r="2"/>
<circle cx="439.13" cy="402.55" fill="black" stroke="none" r="2"/>
<circle cx="435.06" cy="402.55" fill="black" stroke="none" r="2"/>
<circle cx="435.06" cy="407.89" fill="black" stroke="none" r="2"/>
<circle cx="431.945" cy="407.89" fill="black" stroke="none" r="2"/>
<circle cx="431.945" cy="411.73" fill="black" stroke="none" r="2"/>
<circle cx="427.1" cy="411.73" fill="black" stroke="none" r="2"/>
<circle cx="427.1" cy="416.3" fill="black" stroke="none" r="2"/>
<circle cx="423.085" cy="416.3" fill="black" stroke="none" r="2"/>
<circle cx="423.085" cy="420.965" fill="black" stroke="none" r="2"/>
<circle cx="419.145" cy="420.965" fill="black" stroke="none" r="2"/>
<circle cx="419.145" cy="426.09" fill="black" stroke="none" r="2"/>
<circle cx="415.605" cy="426.09" fill="black" stroke="none" r="2"/>
<circle cx="415.605" cy="429.585" fill="black" stroke="none" r="2"/>
<circle cx="410.515" cy="429.585" fill="black" stroke="none" r="2"/>
<circle cx="410.515" cy="433.365" fill="black" stroke="none" r="2"/>
<circle cx="405.72" cy="433.365" fill="black" stroke="none" r="2"/>
<circle cx="405.72" cy="437.285" fill="black" stroke="none" r="2"/>
<circle cx="401.05" cy="437.285" fill="black" stroke="none" r="2"/>
<circle cx="401.05" cy="440.175" fill="black" stroke="none" r="2"/>
<circle cx="395.59" cy="440.175" fill="black" stroke="none" r="2"/>
<circle cx="395.59" cy="444.585" fill="black" stroke="none" r="2"/>
<circle cx="391.29" cy="444.585" fill="black" stroke="none" r="2"/>
<circle cx="391.29" cy="447.88" fill="black" stroke="none" r="2"/>
<circle cx="386.165" cy="447.88" fill="black" stroke="none" r="2"/>
<circle cx="386.165" cy="452.285" fill="black" stroke="none" r="2"/>
<circle cx="381.77" cy="452.285" fill="black" stroke="none" r="2"/>
<circle cx="381.77" cy="453.94" fill="black" stroke="none" r="2"/>
<circle cx="375.605" cy="453.94" fill="black" stroke="none" r="2"/>
<circle cx="375.605" cy="456.51" fill="black" stroke="none" r="2"/>
<circle cx="370.085" cy="456.51" fill="black" stroke="none" r="2"/>
<circle cx="370.085" cy="462.435" fill="black" stroke="none" r="2"/>
<circle cx="366.43" cy="462.435" fill="black" stroke="none" r="2"/>
<circle cx="366.43" cy="465.29" fill="black" stroke="none" r="2"/>
<circle cx="360.995" cy="465.29" fill="black" stroke="none" r="2"/>
<circle cx="360.995" cy="468.11" fill="black" stroke="none" r="2"/>
<circle cx="355.545" cy="468.11" fill="black" stroke="none" r="2"/>
<circle cx="355.545" cy="466.38" fill="black" stroke="none" r="2"/>
<circle cx="348.025" cy="466.38" fill="black" stroke="none" r="2"/>
<circle cx="348.025" cy="471.525" fill="black" stroke="none" r="2"/>
<circle cx="343.665" cy="471.525" fill="black" stroke="none" r="2"/>
<circle cx="343.665" cy="474.95" fill="black" stroke="none" r="2"/>
<circle cx="338.465" cy="474.95" fill="black" stroke="none" r="2"/>
<circle cx="338.465" cy="473.455" fill="black" stroke="none" r="2"/>
<circle cx="331.4" cy="473.455" fill="black" stroke="none" r="2"/>
<circle cx="331.4" cy="475.815" fill="black" stroke="none" r="2"/>
<circle cx="325.84" cy="475.815" fill="black" stroke="none" r="2"/>
<circle cx="325.84" cy="481.715" fill="black" stroke="none" r="2"/>
<circle cx="321.34" cy="481.715" fill="black" stroke="none" r="2"/>
<circle cx="321.34" cy="479.33" fill="black" stroke="none" r="2"/>
<circle cx="314.295" cy="479.33" fill="black" stroke="none" r="2"/>
<circle cx="314.295" cy="481.94" fill="black" stroke="none" r="2"/>
<circle cx="308.73" cy="481.94" fill="black" stroke="none" r="2"/>
<circle cx="308.73" cy="483.32" fill="black" stroke="none" r="2"/>
<circle cx="302.83" cy="483.32" fill="black" stroke="none" r="2"/>
<circle cx="302.83" cy="487.33" fill="black" stroke="none" r="2"/>
<circle cx="297.45" cy="487.33" fill="black" stroke="none" r="2"/>
<circle cx="297.45" cy="487.665" fill="black" stroke="none" r="2"/>
<circle cx="291.285" cy="487.665" fill="black" stroke="none" r="2"/>
<circle cx="291.285" cy="488.82" fill="black" stroke="none" r="2"/>
<circle cx="285.28" cy="488.82" fill="black" stroke="none" r="2"/>
<circle cx="285.28" cy="490.475" fill="black" stroke="none" r="2"/>
<circle cx="279.32" cy="490.475" fill="black" stroke="none" r="2"/>
<circle cx="279.32" cy="489.84" fill="black" stroke="none" r="2"/>
<circle cx="273.095" cy="489.84" fill="black" stroke="none" r="2"/>
<circle cx="273.095" cy="490.93" fill="black" stroke="none" r="2"/>
<circle cx="267.05" cy="490.93" fill="black" stroke="none" r="2"/>
<circle cx="267.05" cy="487.54" fill="black" stroke="none" r="2"/>
<circle cx="260.77" cy="487.54" fill="black" stroke="none" r="2"/>
<circle cx="260.77" cy="488.785" fill="black" stroke="none" r="2"/>
<circle cx="254.77" cy="488.785" fill="black" stroke="none" r="2"/>
<circle cx="254.77" cy="489.65" fill="black" stroke="none" r="2"/>
<circle cx="248.715" cy="489.65" fill="black" stroke="none" r="2"/>
<circle cx="248.715" cy="491.93" fill="black" stroke="none" r="2"/>
<circle cx="242.575" cy="491.93" fill="black" stroke="none" r="2"/>
<circle cx="242.575" cy="490.375" fill="black" stroke="none" r="2"/>
<circle cx="236.52" cy="490.375" fill="black" stroke="none" r="2"/>
<circle cx="236.52" cy="488.865" fill="black" stroke="none" r="2"/>
<circle cx="230.525" cy="488.865" fill="black" stroke="none" r="2"/>
<circle cx="230.525" cy="489.1" fill="black" stroke="none" r="2"/>
<circle cx="224.39" cy="489.1" fill="black" stroke="none" r="2"/>
<circle cx="224.39" cy="488.79" fill="black" stroke="none" r="2"/>
<circle cx="218.285" cy="488.79" fill="black" stroke="none" r="2"/>
<circle cx="218.285" cy="485.97" fill="black" stroke="none" r="2"/>
<circle cx="212.555" cy="485.97" fill="black" stroke="none" r="2"/>
<circle cx="212.555" cy="487.965" fill="black" stroke="none" r="2"/>
<circle cx="206.035" cy="487.965" fill="black" stroke="none" r="2"/>
<circle cx="206.035" cy="482.84" fill="black" stroke="none" r="2"/>
<circle cx="200.85" cy="482.84" fill="black" stroke="none" r="2"/>
<circle cx="200.85" cy="485.17" fill="black" stroke="none" r="2"/>
<circle cx="194.1" cy="485.17" fill="black" stroke="none" r="2"/>
<circle cx="194.1" cy="482.22" fill="black" stroke="none" r="2"/>
<circle cx="188.545" cy="482.22" fill="black" stroke="none" r="2"/>
<circle cx="188.545" cy="478.645" fill="black" stroke="none" r="2"/>
<circle cx="183.25" cy="478.645" fill="black" stroke="none" r="2"/>
<circle cx="183.25" cy="478.95" fill="black" stroke="none" r="2"/>
<circle cx="176.815" cy="478.95" fill="black" stroke="none" r="2"/>
<circle cx="176.815" cy="478.275" fill="black" stroke="none" r="2"/>
<circle cx="170.605" cy="478.275" fill="black" stroke="none" r="2"/>
<circle cx="170.605" cy="475.735" fill="black" stroke="none" r="2"/>
<circle cx="165.02" cy="475.735" fill="black" stroke="none" r="2"/>
<circle cx="165.02" cy="472.27" fill="black" stroke="none" r="2"/>
<circle cx="159.83" cy="472.27" fill="black" stroke="none" r="2"/>
<circle cx="159.83" cy="469.495" fill="black" stroke="none" r="2"/>
<circle cx="154.41" cy="469.495" fill="black" stroke="none" r="2"/>
<circle cx="154.41" cy="469.67" fill="black" stroke="none" r="2"/>
<circle cx="147.64" cy="469.67" fill="black" stroke="none" r="2"/>
<circle cx="147.64" cy="463.795" fill="black" stroke="none" r="2"/>
<circle cx="143.705" cy="463.795" fill="black" stroke="none" r="2"/>
<circle cx="143.705" cy="462.66" fill="black" stroke="none" r="2"/>
<circle cx="137.46" cy="462.66" fill="black" stroke="none" r="2"/>
<circle cx="137.46" cy="460.99" fill="black" stroke="none" r="2"/>
<circle cx="131.41" cy="460.99" fill="black" stroke="none" r="2"/>
<circle cx="131.41" cy="455.365" fill="black" stroke="none" r="2"/>
<circle cx="127.625" cy="455.365" fill="black" stroke="none" r="2"/>
<circle cx="127.625" cy="454.1" fill="black" stroke="none" r="2"/>
<circle cx="121.26" cy="454.1" fill="black" stroke="none" r="2"/>
<circle cx="121.26" cy="450.53" fill="black" stroke="none" r="2"/>
<circle cx="116.295" cy="450.53" fill="black" stroke="none" r="2"/>
<circle cx="116.295" cy="444.715" fill="black" stroke="none" r="2"/>
<circle cx="112.92" cy="444.715" fill="black" stroke="none" r="2"/>
<circle cx="112.92" cy="441.65" fill="black" stroke="none" r="2"/>
<circle cx="107.685" cy="441.65" fill="black" stroke="none" r="2"/>
<circle cx="107.685" cy="440.0" fill="black" stroke="none" r="2"/>
<circle cx="101.295" cy="440.0" fill="black" stroke="none" r="2"/>
<circle cx="101.295" cy="434.355" fill="black" stroke="none" r="2"/>
<circle cx="98.025" cy="434.355" fill="black" stroke="none" r="2"/>
<circle cx="98.025" cy="431.965" fill="black" stroke="none" r="2"/>
<circle cx="92.085" cy="431.965" fill="black" stroke="none" r="2"/>
<circle cx="92.085" cy="425.38" fill="black" stroke="none" r="2"/>
<circle cx="89.835" cy="425.38" fill="black" stroke="none" r="2"/>
<circle cx="89.835" cy="422.165" fill="black" stroke="none" r="2"/>
<circle cx="84.58" cy="422.165" fill="black" stroke="none" r="2"/>
<circle cx="84.58" cy="419.525" fill="black" stroke="none" r="2"/>
<circle cx="78.65" cy="419.525" fill="black" stroke="none" r="2"/>
<circle cx="78.65" cy="413.065" fill="black" stroke="none" r="2"/>
<circle cx="76.605" cy="413.065" fill="black" stroke="none" r="2"/>
<circle cx="76.605" cy="411.035" fill="black" stroke="none" r="2"/>
<circle cx="69.825" cy="411.035" fill="black" stroke="none" r="2"/>
<circle cx="69.825" cy="403.765" fill="black" stroke="none" r="2"/>
<circle cx="68.935" cy="403.765" fill="black" stroke="none" r="2"/>
<circle cx="68.935" cy="400.9" fill="black" stroke="none" r="2"/>
<circle cx="62.9" cy="400.9" fill="black" stroke="none" r="2"/>
<circle cx="62.9" cy="395.445" fill="black" stroke="none" r="2"/>
<circle cx="60.005" cy="395.445" fill="black" stroke="none" r="2"/>
<circle cx="60.005" cy="391.87" fill="black" stroke="none" r="2"/>
<circle cx="54.615" cy="391.87" fill="black" stroke="none" r="2"/>
<circle cx="54.615" cy="385.195" fill="black" stroke="none" r="2"/>
<circle cx="53.52" cy="385.195" fill="black" stroke="none" r="2"/>
<circle cx="53.52" cy="381.76" fill="black" stroke="none" r="2"/>
<circle cx="47.725" cy="381.76" fill="black" stroke="none" r="2"/>
<circle cx="47.725" cy="374.675" fill="black" stroke="none" r="2"/>
<circle cx="47.565" cy="374.675" fill="black" stroke="none" r="2"/>
<circle cx="47.565" cy="369.74" fill="black" stroke="none" r="2"/>
<circle cx="44.08" cy="369.74" fill="black" stroke="none" r="2"/>
<circle cx="44.08" cy="366.41" fill="black" stroke="none" r="2"/>
<circle cx="37.6" cy="366.41" fill="black" stroke="none" r="2"/>
<circle cx="37.6" cy="361.12" fill="black" stroke="none" r="2"/>
<circle cx="34.47" cy="361.12" fill="black" stroke="none" r="2"/>
<circle cx="34.47" cy="354.68" fill="black" stroke="none" r="2"/>
<circle cx="33.665" cy="354.68" fill="black" stroke="none" r="2"/>
<circle cx="33.665" cy="348.47" fill="black" stroke="none" r="2"/>
<circle cx="32.625" cy="348.47" fill="black" stroke="none" r="2"/>
<circle cx="32.625" cy="344.015" fill="black" stroke="none" r="2"/>
<circle cx="27.645" cy="344.015" fill="black" stroke="none" r="2"/>
<circle cx="27.645" cy="338.695" fill="black" stroke="none" r="2"/>
<circle cx="24.45" cy="338.695" fill="black" stroke="none" r="2"/>
<circle cx="24.45" cy="332.51" fill="black" stroke="none" r="2"/>
<circle cx="23.5" cy="332.51" fill="black" stroke="none" r="2"/>
<circle cx="23.5" cy="327.145" fill="black" stroke="none" r="2"/>
<circle cx="20.295" cy="327.145" fill="black" stroke="none" r="2"/>
<circle cx="20.295" cy="320.75" fill="black" stroke="none" r="2"/>
<circle cx="20.2" cy="320.75" fill="black" stroke="none" r="2"/>
<circle cx="20.2" cy="314.315" fill="black" stroke="none" r="2"/>
<circle cx="20.585" cy="314.315" fill="black" stroke="none" r="2"/>
<circle cx="20.585" cy="308.855" fill="black" stroke="none" r="2"/>
<circle cx="17.56" cy="308.855" fill="black" stroke="none" r="2"/>
<circle cx="17.56" cy="303.26" fill="black" stroke="none" r="2"/>
<circle cx="14.765" cy="303.26" fill="black" stroke="none" r="2"/>
<circle cx="14.765" cy="297.445" fill="black" stroke="none" r="2"/>
<circle cx="12.7" cy="297.445" fill="black" stroke="none" r="2"/>
<circle cx="12.7" cy="290.815" fill="black" stroke="none" r="2"/>
<circle cx="15.025" cy="290.815" fill="black" stroke="none" r="2"/>
<circle cx="15.025" cy="285.185" fill="black" stroke="none" r="2"/>
<circle cx="11.805" cy="285.185" fill="black" stroke="none" r="2"/>
<circle cx="11.805" cy="278.95" fill="black" stroke="none" r="2"/>
<circle cx="12.54" cy="278.95" fill="black" stroke="none" r="2"/>
<circle cx="12.54" cy="272.84" fill="black" stroke="none" r="2"/>
<circle cx="12.805" cy="272.84" fill="black" stroke="none" r="2"/>
<circle cx="12.805" cy="266.805" fill="black" stroke="none" r="2"/>
<circle cx="12.545" cy="266.805" fill="black" stroke="none" r="2"/>
<circle cx="12.545" cy="260.945" fill="black" stroke="none" r="2"/>
<circle cx="8.625" cy="260.945" fill="black" stroke="none" r="2"/>
<circle cx="8.625" cy="254.825" fill="black" stroke="none" r="2"/>
<circle cx="8.65" cy="254.825" fill="black" stroke="none" r="2"/>
<circle cx="8.65" cy="251.19" fill="black" stroke="none" r="2"/>
<circle cx="473.55" cy="251.19" fill="black" stroke="none" r="2"/>
<circle cx="473.55" cy="242.635" fill="black" stroke="none" r="2"/>
<circle cx="10.04" cy="242.635" fill="black" stroke="none" r="2"/>
<circle cx="10.04" cy="236.67" fill="black" stroke="none" r="2"/>
<circle cx="12.35" cy="236.67" fill="black" stroke="none" r="2"/>
<circle cx="12.35" cy="230.415" fill="black" stroke="none" r="2"/>
<circle cx="9.84" cy="230.415" fill="black" stroke="none" r="2"/>
<circle cx="9.84" cy="224.465" fill="black" stroke="none" r="2"/>
<circle cx="11.56" cy="224.465" fill="black" stroke="none" r="2"/>
<circle cx="11.56" cy="218.255" fill="black" stroke="none" r="2"/>
<circle cx="10.95" cy="218.255" fill="black" stroke="none" r="2"/>
<circle cx="10.95" cy="212.26" fill="black" stroke="none" r="2"/>
<circle cx="12.145" cy="212.26" fill="black" stroke="none" r="2"/>
<circle cx="12.145" cy="205.995" fill="black" stroke="none" r="2"/>
<circle cx="11.84" cy="205.995" fill="black" stroke="none" r="2"/>
<circle cx="11.84" cy="200.13" fill="black" stroke="none" r="2"/>
<circle cx="13.745" cy="200.13" fill="black" stroke="none" r="2"/>
<circle cx="13.745" cy="194.43" fill="black" stroke="none" r="2"/>
<circle cx="16.21" cy="194.43" fill="black" stroke="none" r="2"/>
<circle cx="16.21" cy="188.53" fill="black" stroke="none" r="2"/>
<circle cx="17.715" cy="188.53" fill="black" stroke="none" r="2"/>
<circle cx="17.715" cy="182.985" fill="black" stroke="none" r="2"/>
<circle cx="20.445" cy="182.985" fill="black" stroke="none" r="2"/>
<circle cx="20.445" cy="176.38" fill="black" stroke="none" r="2"/>
<circle cx="19.685" cy="176.38" fill="black" stroke="none" r="2"/>
<circle cx="19.685" cy="171.28" fill="black" stroke="none" r="2"/>
<circle cx="23.66" cy="171.28" fill="black" stroke="none" r="2"/>
<circle cx="23.66" cy="166.2" fill="black" stroke="none" r="2"/>
<circle cx="27.39" cy="166.2" fill="black" stroke="none" r="2"/>
<circle cx="27.39" cy="160.095" fill="black" stroke="none" r="2"/>
<circle cx="28.37" cy="160.095" fill="black" stroke="none" r="2"/>
<circle cx="28.37" cy="154.15" fill="black" stroke="none" r="2"/>
<circle cx="29.895" cy="154.15" fill="black" stroke="none" r="2"/>
<circle cx="29.895" cy="148.505" fill="black" stroke="none" r="2"/>
<circle cx="32.185" cy="148.505" fill="black" stroke="none" r="2"/>
<circle cx="32.185" cy="144.09" fill="black" stroke="none" r="2"/>
<circle cx="36.975" cy="144.09" fill="black" stroke="none" r="2"/>
<circle cx="36.975" cy="137.35" fill="black" stroke="none" r="2"/>
<circle cx="37.13" cy="137.35" fill="black" stroke="none" r="2"/>
<circle cx="37.13" cy="133.345" fill="black" stroke="none" r="2"/>
<circle cx="42.455" cy="133.345" fill="black" stroke="none" r="2"/>
<circle cx="42.455" cy="126.64" fill="black" stroke="none" r="2"/>
<circle cx="42.985" cy="126.64" fill="black" stroke="none" r="2"/>
<circle cx="42.985" cy="122.31" fill="black" stroke="none" r="2"/>
<circle cx="47.555" cy="122.31" fill="black" stroke="none" r="2"/>
<circle cx="47.555" cy="117.875" fill="black" stroke="none" r="2"/>
<circle cx="51.835" cy="117.875" fill="black" stroke="none" r="2"/>
<circle cx="51.835" cy="112.135" fill="black" stroke="none" r="2"/>
<circle cx="54.165" cy="112.135" fill="black" stroke="none" r="2"/>
<circle cx="54.165" cy="108.225" fill="black" stroke="none" r="2"/>
<circle cx="59.075" cy="108.225" fill="black" stroke="none" r="2"/>
<circle cx="59.075" cy="101.425" fill="black" stroke="none" r="2"/>
<circle cx="60.16" cy="101.425" fill="black" stroke="none" r="2"/>
<circle cx="60.16" cy="96.95" fill="black" stroke="none" r="2"/>
<circle cx="64.335" cy="96.95" fill="black" stroke="none" r="2"/>
<circle cx="64.335" cy="91.735" fill="black" stroke="none" r="2"/>
<circle cx="67.625" cy="91.735" fill="black" stroke="none" r="2"/>
<circle cx="67.625" cy="89.67" fill="black" stroke="none" r="2"/>
<circle cx="74.435" cy="89.67" fill="black" stroke="none" r="2"/>
<circle cx="74.435" cy="85.295" fill="black" stroke="none" r="2"/>
<circle cx="78.575" cy="85.295" fill="black" stroke="none" r="2"/>
<circle cx="78.575" cy="79.56" fill="black" stroke="none" r="2"/>
<circle cx="81.37" cy="79.56" fill="black" stroke="none" r="2"/>
<circle cx="81.37" cy="74.54" fill="black" stroke="none" r="2"/>
<circle cx="84.99" cy="74.54" fill="black" stroke="none" r="2"/>
<circle cx="84.99" cy="71.215" fill="black" stroke="none" r="2"/>
<circle cx="90.2" cy="71.215" fill="black" stroke="none" r="2"/>
<circle cx="90.2" cy="65.995" fill="black" stroke="none" r="2"/>
<circle cx="93.735" cy="65.995" fill="black" stroke="none" r="2"/>
<circle cx="93.735" cy="64.45" fill="black" stroke="none" r="2"/>
<circle cx="100.345" cy="64.45" fill="black" stroke="none" r="2"/>
<circle cx="100.345" cy="58.485" fill="black" stroke="none" r="2"/>
<circle cx="103.385" cy="58.485" fill="black" stroke="none" r="2"/>
<circle cx="103.385" cy="55.715" fill="black" stroke="none" r="2"/>
<circle cx="108.925" cy="55.715" fill="black" stroke="none" r="2"/>
<circle cx="108.925" cy="52.805" fill="black" stroke="none" r="2"/>
<circle cx="114.305" cy="52.805" fill="black" stroke="none" r="2"/>
<circle cx="114.305" cy="48.645" fill="black" stroke="none" r="2"/>
<circle cx="118.835" cy="48.645" fill="black" stroke="none" r="2"/>
<circle cx="118.835" cy="47.295" fill="black" stroke="none" r="2"/>
<circle cx="125.15" cy="47.295" fill="black" stroke="none" r="2"/>
<circle cx="125.15" cy="43.045" fill="black" stroke="none" r="2"/>
<circle cx="129.655" cy="43.045" fill="black" stroke="none" r="2"/>
<circle cx="129.655" cy="37.74" fill="black" stroke="none" r="2"/>
<circle cx="133.665" cy="37.74" fill="black" stroke="none" r="2"/>
<circle cx="133.665" cy="34.72" fill="black" stroke="none" r="2"/>
<circle cx="139.005" cy="34.72" fill="black" stroke="none" r="2"/>
<circle cx="139.005" cy="35.265" fill="black" stroke="none" r="2"/>
<circle cx="146.085" cy="35.265" fill="black" stroke="none" r="2"/>
<circle cx="146.085" cy="32.68" fill="black" stroke="none" r="2"/>
<circle cx="151.55" cy="32.68" fill="black" stroke="none" r="2"/>
<circle cx="151.55" cy="29.15" fill="black" stroke="none" r="2"/>
<circle cx="156.62" cy="29.15" fill="black" stroke="none" r="2"/>
<circle cx="156.62" cy="25.5" fill="black" stroke="none" r="2"/>
<circle cx="161.71" cy="25.5" fill="black" stroke="none" r="2"/>
<circle cx="161.71" cy="26.445" fill="black" stroke="none" r="2"/>
<circle cx="168.56" cy="26.445" fill="black" stroke="none" r="2"/>
<circle cx="168.56" cy="23.62" fill="black" stroke="none" r="2"/>
<circle cx="173.965" cy="23.62" fill="black" stroke="none" r="2"/>
<circle cx="173.965" cy="20.7" fill="black" stroke="none" r="2"/>
<circle cx="179.4" cy="20.7" fill="black" stroke="none" r="2"/>
<circle cx="179.4" cy="21.15" fill="black" stroke="none" r="2"/>
<circle cx="185.835" cy="21.15" fill="black" stroke="none" r="2"/>
<circle cx="185.835" cy="19.25" fill="black" stroke="none" r="2"/>
<circle cx="191.565" cy="19.25" fill="black" stroke="none" r="2"/>
<circle cx="191.565" cy="17.795" fill="black" stroke="none" r="2"/>
<circle cx="197.42" cy="17.795" fill="black" stroke="none" r="2"/>
<circle cx="197.42" cy="14.805" fill="black" stroke="none" r="2"/>
<circle cx="202.97" cy="14.805" fill="black" stroke="none" r="2"/>
<circle cx="202.97" cy="14.33" fill="black" stroke="none" r="2"/>
<circle cx="209.055" cy="14.33" fill="black" stroke="none" r="2"/>
<circle cx="209.055" cy="13.325" fill="black" stroke="none" r="2"/>
<circle cx="215.035" cy="13.325" fill="black" stroke="none" r="2"/>
<circle cx="215.035" cy="13.365" fill="black" stroke="none" r="2"/>
<circle cx="221.145" cy="13.365" fill="black" stroke="none" r="2"/>
<circle cx="221.145" cy="10.095" fill="black" stroke="none" r="2"/>
<circle cx="226.895" cy="10.095" fill="black" stroke="none" r="2"/>
<circle cx="226.895" cy="9.42" fill="black" stroke="none" r="2"/>
<circle cx="232.97" cy="9.42" fill="black" stroke="none" r="2"/>
<circle cx="232.97" cy="11.655" fill="black" stroke="none" r="2"/>
<circle cx="239.185" cy="11.655" fill="black" stroke="none" r="2"/>
<circle cx="239.185" cy="11.85" fill="black" stroke="none" r="2"/>
<circle cx="245.235" cy="11.85" fill="black" stroke="none" r="2"/>
<circle cx="245.235" cy="8.965" fill="black" stroke="none" r="2"/>
<circle cx="251.285" cy="8.965" fill="black" stroke="none" r="2"/>
<circle cx="251.285" cy="10.34" fill="black" stroke="none" r="2"/>
<circle cx="257.35" cy="10.34" fill="black" stroke="none" r="2"/>
<circle cx="257.35" cy="10.085" fill="black" stroke="none" r="2"/>
<circle cx="263.45" cy="10.085" fill="black" stroke="none" r="2"/>
<circle cx="263.45" cy="11.275" fill="black" stroke="none" r="2"/>
<circle cx="269.46" cy="11.275" fill="black" stroke="none" r="2"/>
<circle cx="269.46" cy="9.29" fill="black" stroke="none" r="2"/>
<circle cx="275.775" cy="9.29" fill="black" stroke="none" r="2"/>
<circle cx="275.775" cy="11.23" fill="black" stroke="none" r="2"/>
<circle cx="281.705" cy="11.23" fill="black" stroke="none" r="2"/>
<circle cx="281.705" cy="11.91" fill="black" stroke="none" r="2"/>
<circle cx="287.775" cy="11.91" fill="black" stroke="none" r="2"/>
<circle cx="287.775" cy="12.525" fill="black" stroke="none" r="2"/>
<circle cx="293.87" cy="12.525" fill="black" stroke="none" r="2"/>
<circle cx="293.87" cy="14.905" fill="black" stroke="none" r="2"/>
<circle cx="299.62" cy="14.905" fill="black" stroke="none" r="2"/>
<circle cx="299.62" cy="15.69" fill="black" stroke="none" r="2"/>
<circle cx="305.69" cy="15.69" fill="black" stroke="none" r="2"/>
<circle cx="305.69" cy="16.95" fill="black" stroke="none" r="2"/>
<circle cx="311.67" cy="16.95" fill="black" stroke="none" r="2"/>
<circle cx="311.67" cy="19.74" fill="black" stroke="none" r="2"/>
<circle cx="317.215" cy="19.74" fill="black" stroke="none" r="2"/>
<circle cx="317.215" cy="19.635" fill="black" stroke="none" r="2"/>
<circle cx="323.63" cy="19.635" fill="black" stroke="none" r="2"/>
<circle cx="323.63" cy="22.15" fill="black" stroke="none" r="2"/>
<circle cx="329.24" cy="22.15" fill="black" stroke="none" r="2"/>
<circle cx="329.24" cy="24.21" fill="black" stroke="none" r="2"/>
<circle cx="334.995" cy="24.21" fill="black" stroke="none" r="2"/>
<circle cx="334.995" cy="27.61" fill="black" stroke="none" r="2"/>
<circle cx="340.21" cy="27.61" fill="black" stroke="none" r="2"/>
<circle cx="340.21" cy="31.91" fill="black" stroke="none" r="2"/>
<circle cx="344.97" cy="31.91" fill="black" stroke="none" r="2"/>
<circle cx="344.97" cy="32.77" fill="black" stroke="none" r="2"/>
<circle cx="351.215" cy="32.77" fill="black" stroke="none" r="2"/>
<circle cx="351.215" cy="35.725" fill="black" stroke="none" r="2"/>
<circle cx="356.525" cy="35.725" fill="black" stroke="none" r="2"/>
<circle cx="356.525" cy="35.95" fill="black" stroke="none" r="2"/>
<circle cx="363.265" cy="35.95" fill="black" stroke="none" r="2"/>
<circle cx="363.265" cy="39.615" fill="black" stroke="none" r="2"/>
<circle cx="368.245" cy="39.615" fill="black" stroke="none" r="2"/>
<circle cx="368.245" cy="42.34" fill="black" stroke="none" r="2"/>
<circle cx="373.735" cy="42.34" fill="black" stroke="none" r="2"/>
<circle cx="373.735" cy="46.37" fill="black" stroke="none" r="2"/>
<circle cx="378.435" cy="46.37" fill="black" stroke="none" r="2"/>
<circle cx="378.435" cy="49.22" fill="black" stroke="none" r="2"/>
<circle cx="383.865" cy="49.22" fill="black" stroke="none" r="2"/>
<circle cx="383.865" cy="54.685" fill="black" stroke="none" r="2"/>
<circle cx="387.495" cy="54.685" fill="black" stroke="none" r="2"/>
<circle cx="387.495" cy="58.035" fill="black" stroke="none" r="2"/>
<circle cx="392.545" cy="58.035" fill="black" stroke="none" r="2"/>
<circle cx="392.545" cy="59.14" fill="black" stroke="none" r="2"/>
<circle cx="399.37" cy="59.14" fill="black" stroke="none" r="2"/>
<circle cx="399.37" cy="65.425" fill="black" stroke="none" r="2"/>
<circle cx="402.145" cy="65.425" fill="black" stroke="none" r="2"/>
<circle cx="402.145" cy="67.255" fill="black" stroke="none" r="2"/>
<circle cx="408.585" cy="67.255" fill="black" stroke="none" r="2"/>
<circle cx="408.585" cy="73.015" fill="black" stroke="none" r="2"/>
<circle cx="411.625" cy="73.015" fill="black" stroke="none" r="2"/>
<circle cx="411.625" cy="78.225" fill="black" stroke="none" r="2"/>
<circle cx="415.035" cy="78.225" fill="black" stroke="none" r="2"/>
<circle cx="415.035" cy="81.08" fill="black" stroke="none" r="2"/>
<circle cx="420.73" cy="81.08" fill="black" stroke="none" r="2"/>
<circle cx="420.73" cy="85.785" fill="black" stroke="none" r="2"/>
<circle cx="424.61" cy="85.785" fill="black" stroke="none" r="2"/>
<circle cx="424.61" cy="90.725" fill="black" stroke="none" r="2"/>
<circle cx="428.195" cy="90.725" fill="black" stroke="none" r="2"/>
<circle cx="428.195" cy="93.565" fill="black" stroke="none" r="2"/>
<circle cx="434.205" cy="93.565" fill="black" stroke="none" r="2"/>
<circle cx="434.205" cy="99.075" fill="black" stroke="none" r="2"/>
<circle cx="437.12" cy="99.075" fill="black" stroke="none" r="2"/>
<circle cx="437.12" cy="103.965" fill="black" stroke="none" r="2"/>
<circle cx="440.75" cy="103.965" fill="black" stroke="none" r="2"/>
<circle cx="440.75" cy="108.895" fill="black" stroke="none" r="2"/>
<circle cx="444.325" cy="108.895" fill="black" stroke="none" r="2"/>
<circle cx="444.325" cy="115.255" fill="black" stroke="none" r="2"/>
<circle cx="445.81" cy="115.255" fill="black" stroke="none" r="2"/>
<circle cx="445.81" cy="117.655" fill="black" stroke="none" r="2"/>
<circle cx="453.16" cy="117.655" fill="black" stroke="none" r="2"/>
<circle cx="453.16" cy="124.96" fill="black" stroke="none" r="2"/>
<circle cx="453.01" cy="124.96" fill="black" stroke="none" r="2"/>
<circle cx="453.01" cy="130.37" fill="black" stroke="none" r="2"/>
<circle cx="455.725" cy="130.37" fill="black" stroke="none" r="2"/>
<circle cx="455.725" cy="134.36" fill="black" stroke="none" r="2"/>
<circle cx="460.98" cy="134.36" fill="black" stroke="none" r="2"/>
<circle cx="460.98" cy="138.875" fill="black" stroke="none" r="2"/>
<circle cx="465.53" cy="138.875" fill="black" stroke="none" r="2"/>
<circle cx="465.53" cy="144.915" fill="black" stroke="none" r="2"/>
<circle cx="467.155" cy="144.915" fill="black" stroke="none" r="2"/>
<circle cx="467.155" cy="151.735" fill="black" stroke="none" r="2"/>
<circle cx="466.9" cy="151.735" fill="black" stroke="none" r="2"/>
<circle cx="466.9" cy="157.445" fill="black" stroke="none" r="2"/>
<circle cx="468.89" cy="157.445" fill="black" stroke="none" r="2"/>
<circle cx="468.89" cy="162.685" fill="black" stroke="none" r="2"/>
<circle cx="472.015" cy="162.685" fill="black" stroke="none" r="2"/>
<circle cx="472.015" cy="167.15" fill="black" stroke="none" r="2"/>
<circle cx="477.42" cy="167.15" fill="black" stroke="none" r="2"/>
<circle cx="477.42" cy="173.785" fill="black" stroke="none" r="2"/>
<circle cx="476.915" cy="173.785" fill="black" stroke="none" r="2"/>
<circle cx="476.915" cy="179.925" fill="black" stroke="none" r="2"/>
<circle cx="477.59" cy="179.925" fill="black" stroke="none" r="2"/>
<circle cx="477.59" cy="185.395" fill="black" stroke="none" r="2"/>
<circle cx="480.425" cy="185.395" fill="black" stroke="none" r="2"/>
<circle cx="480.425" cy="190.48" fill="black" stroke="none" r="2"/>
<circle cx="485.035" cy="190.48" fill="black" stroke="none" r="2"/>
<circle cx="485.035" cy="197.385" fill="black" stroke="none" r="2"/>
<circle cx="482.34" cy="197.385" fill="black" stroke="none" r="2"/>
<circle cx="482.34" cy="202.965" fill="black" stroke="none" r="2"/>
<circle cx="485.225" cy="202.965" fill="black" stroke="none" r="2"/>
<circle cx="485.225" cy="209.0" fill="black" stroke="none" r="2"/>
<circle cx="485.98" cy="209.0" fill="black" stroke="none" r="2"/>
<circle cx="485.98" cy="214.935" fill="black" stroke="none" r="2"/>
<circle cx="487.345" cy="214.935" fill="black" stroke="none" r="2"/>
<circle cx="487.345" cy="220.695" fill="black" stroke="none" r="2"/>
<circle cx="490.32" cy="220.695" fill="black" stroke="none" r="2"/>
<circle cx="490.32" cy="226.835" fill="black" stroke="none" r="2"/>
<circle cx="490.52" cy="226.835" fill="black" stroke="none" r="2"/>
<circle cx="490.52" cy="233.15" fill="black" stroke="none" r="2"/>
<circle cx="487.995" cy="233.15" fill="black" stroke="none" r="2"/>
<circle cx="487.995" cy="239.06" fill="black" stroke="none" r="2"/>
<circle cx="491.155" cy="239.06" fill="black" stroke="none" r="2"/>
<circle cx="491.155" cy="245.235" fill="black" stroke="none" r="2"/>
<circle cx="488.22" cy="245.235" fill="black" stroke="none" r="2"/>
<circle cx="488.22" cy="251.275" fill="black" stroke="none" r="2"/>
<rect y="220.695" x="131.41" width="358.91" height="240.295" fill="rgba(250, 100, 100, 0.5)"/>
</svg>
