<svg width="500" height="500" xmlns="http://www.w3.org/2000/svg">
<polygon fill="lightblue" stroke="black" points="497.4234139003517,255.39710934482548 497.4234139003517,261.6022604842152 498.64309962799587,261.6022604842152 498.64309962799587,267.76167340881835 497.78423759477977,267.76167340881835 497.78423759477977,273.79403573679184 495.6447055475372,273.79403573679184 495.6447055475372,280.1821397353282 497.6775150936109,280.1821397353282 497.6775150936109,286.1484357530543 495.46683471225583,286.1484357530543 495.46683471225583,291.96735307869005 492.7682800398431,291.96735307869005 492.7682800398431,298.41644136360867 493.9778017197569,298.41644136360867 493.9778017197569,304.0778159494237 490.8777671619946,304.0778159494237 490.8777671619946,310.63362673551114 491.93991014981805,310.63362673551114 491.93991014981805,316.1374585815055 488.52987213627955,316.1374585815055 488.52987213627955,323.0896672290773 490.43563108572357,323.0896672290773 490.43563108572357,328.23267538064357 486.029516394609,328.23267538064357 486.029516394609,333.57388246295204 482.60931433334014,333.57388246295204 482.60931433334014,339.7587055068811 481.6437297989551,339.7587055068811 481.6437297989551,346.2281218872604 481.21175777041447,346.2281218872604 481.21175777041447,352.2198280243124 479.4178033460045,352.2198280243124 479.4178033460045,357.96759701583557 477.01400605777246,357.96759701583557 477.01400605777246,362.6430589718049 472.4198564836461,362.6430589718049 472.4198564836461,367.51163783465125 468.415221677881,367.51163783465125 468.415221677881,373.79810135588394 467.063403329742,373.79810135588394 467.063403329742,378.9665196267762 463.64828329233836,378.9665196267762 463.64828329233836,384.4093671863883 460.7007094505316,384.4093671863883 460.7007094505316,390.7568149940032 459.05921574207713,390.7568149940032 459.05921574207713,394.34472384282316 453.31144675055396,394.34472384282316 453.31144675055396,399.7215050921879 450.20633016892646,399.7215050921879 450.20633016892646,404.5494277641128 446.3338279836562,404.5494277641128 446.3338279836562,409.15374138596957 442.19706055739636,409.15374138596957 442.19706055739636,414.58134287398616 439.0309596893867,414.58134287398616 439.0309596893867,418.4843372024475 434.10647856402335,418.4843372024475 434.10647856402335,423.1293070152257 430.0256134002805,423.1293070152257 430.0256134002805,427.8708352814425 426.0209785945155,427.8708352814425 426.0209785945155,433.07990974325617 422.4229056979652,433.07990974325617 422.4229056979652,436.6322444250198 417.2494054032078,436.6322444250198 417.2494054032078,440.474254467099 412.37574451649624,440.474254467099 412.37574451649624,444.4585611774033 407.62913422641435,444.4585611774033 407.62913422641435,447.3959709714797 402.0795641656333,447.3959709714797 402.0795641656333,451.878316020572 397.709023641575,451.878316020572 397.709023641575,455.22736974772835 392.49994917976136,455.22736974772835 392.49994917976136,459.7046327729555 388.03285020226457,459.7046327729555 388.03285020226457,461.38678267233144 381.76671477649256,461.38678267233144 381.76671477649256,463.99894293903606 376.15616042932936,463.99894293903606 376.15616042932936,470.0211412192792 372.4412009838798,470.0211412192792 372.4412009838798,472.92297684629926 366.9170410424247,472.92297684629926 366.9170410424247,475.7892383062631 361.3776350293741,475.7892383062631 361.3776350293741,474.0308580489094 353.73427113613724,474.0308580489094 353.73427113613724,479.2602606061838 349.3027463256968,479.2602606061838 349.3027463256968,482.7414469538349 344.0174415059053,482.7414469538349 344.0174415059053,481.22192181814484 336.8365417844002,481.22192181814484 336.8365417844002,483.62063708251173 331.1853312463155,483.62063708251173 331.1853312463155,489.61742524342895 326.61150976764986,489.61742524342895 326.61150976764986,487.19329985973616 319.4509381416055,487.19329985973616 319.4509381416055,489.8461163173622 313.79464557965565,489.8461163173622 313.79464557965565,491.24875490415303 307.79785741873843,491.24875490415303 307.79785741873843,495.32453804403065 302.32959973980036,495.32453804403065 302.32959973980036,495.66503364299797 296.0634643140284,495.66503364299797 296.0634643140284,496.8389811558555 289.9599536519423,496.8389811558555 289.9599536519423,498.5211310552314 283.90218120464294,498.5211310552314 283.90218120464294,497.87571402435304 277.57506149248877,497.87571402435304 277.57506149248877,498.9835952269632 271.4308946394812,498.9835952269632 271.4308946394812,495.53798304636837 265.04787266481003,495.53798304636837 265.04787266481003,496.8034069887992 258.94944402658916,496.8034069887992 258.94944402658916,497.68259711747606 252.79511312585123,497.68259711747606 252.79511312585123,500 246.5543878194052,500 246.5543878194052,498.4194905779278 240.4000569186673,498.4194905779278 240.4000569186673,496.8847193706422 234.3067103043116,496.8847193706422 234.3067103043116,497.1235744923058 228.07106702173073,497.1235744923058 228.07106702173073,496.8084890126644 221.86591588234097,496.8084890126644 221.86591588234097,493.9422275527006 216.04191653284005,493.9422275527006 216.04191653284005,495.969955074909 209.41495741264,495.969955074909 209.41495741264,490.76088061309537 204.14489866444413,490.76088061309537 204.14489866444413,493.12910373427115 197.28416644644562,493.12910373427115 197.28416644644562,490.1307096538125 191.63803793222613,490.1307096538125 191.63803793222613,486.4970625902059 186.2561746589962,486.4970625902059 186.2561746589962,486.80706604598214 179.7156099445043,486.80706604598214 179.7156099445043,486.1209928241823 173.4037363039457,486.1209928241823 173.4037363039457,483.5393247006688 167.72711564653508,483.5393247006688 167.72711564653508,480.01748216209626 162.45197487447402,480.01748216209626 162.45197487447402,477.1969589169191 156.94306100461446,477.1969589169191 156.94306100461446,477.3748297522005 150.06200069115525,477.3748297522005 150.06200069115525,471.40345171060926 146.06244790925538,471.40345171060926 146.06244790925538,470.2498322932124 139.71500010164047,470.2498322932124 139.71500010164047,468.55243632224096 133.56575122476775,468.55243632224096 133.56575122476775,462.8351594739089 129.7186591588234,462.8351594739089 129.7186591588234,461.5494074360173 123.24924277844408,461.5494074360173 123.24924277844408,457.9208423962759 118.20279308031631,457.9208423962759 118.20279308031631,452.01044864106683 114.77242697131706,452.01044864106683 114.77242697131706,448.89516801170896 109.45154798446933,448.89516801170896 109.45154798446933,447.21810013619825 102.95672148476409,447.21810013619825 102.95672148476409,441.48049519240544 99.63307787693371,441.48049519240544 99.63307787693371,439.05128778484743 93.59563352509504,439.05128778484743 93.59563352509504,432.35826235440004 91.3087227857622,432.35826235440004 91.3087227857622,429.0905210090867 85.96751570345374,429.0905210090867 85.96751570345374,426.40721240826946 79.94023539934544,426.40721240826946 79.94023539934544,419.84123757445167 77.86168763848515,419.84123757445167 77.86168763848515,417.77793588518693 70.97046327729555,417.77793588518693 70.97046327729555,410.38867318520926 70.06586302929279,410.38867318520926 70.06586302929279,407.4766735104588 63.931860224015615,407.4766735104588 63.931860224015615,401.932185473543 60.989368406074036,401.932185473543 60.989368406074036,398.2985384099364 55.510946679405606,398.2985384099364 55.510946679405606,391.51403654991566 54.3979834529303,391.51403654991566 54.3979834529303,388.0226861545342 48.50791779318196,388.0226861545342 48.50791779318196,380.82145833756834 48.34529302949607,380.82145833756834 48.34529302949607,375.80550078263167 44.80312239546277,375.80550078263167 44.80312239546277,372.42087288841907 38.21681946618421,372.42087288841907 38.21681946618421,367.04409163905433 35.035472526578985,367.04409163905433 35.035472526578985,360.4984449006973 34.21726668428435,360.4984449006973 34.21726668428435,354.18657126013863 33.16020572032606,354.18657126013863 33.16020572032606,349.6584879962596 28.09850995060273,349.6584879962596 28.09850995060273,344.2512146037038 24.851096700750105,344.2512146037038 24.851096700750105,337.9647510824711 23.88551216636513,337.9647510824711 23.88551216636513,332.5117394751286 20.627934868782145,332.5117394751286 20.627934868782145,326.0118309515581 20.531376415343647,326.0118309515581 20.531376415343647,319.47126623706623 20.92269225296282,319.47126623706623 20.92269225296282,313.92169617628525 17.848067814526456,313.92169617628525 17.848067814526456,308.23491147114424 15.007216473888562,308.23491147114424 15.007216473888562,302.3245177159352 12.90834061756754,302.3245177159352 12.90834061756754,295.5857540707011 15.271481714878133,295.5857540707011 15.271481714878133,289.86339519850384 11.99865834569959,289.86339519850384 11.99865834569959,283.5261114386193 12.74571585388165,283.5261114386193 12.74571585388165,277.31587827536435 13.015063118736405,277.31587827536435 13.015063118736405,271.1818754700872 12.750797877746834,271.1818754700872 12.750797877746834,265.2257435000915 8.766491167442522,265.2257435000915 8.766491167442522,259.00534628910617 8.791901286768443,259.00534628910617 8.791901286768443,255.31071493911736 481.3184802715834,255.31071493911736 481.3184802715834,246.6153721057874 10.204703921289614,246.6153721057874 10.204703921289614,240.5525176346228 12.552598947004656,240.5525176346228 12.552598947004656,234.19490577927755 10.001422966682252,234.19490577927755 10.001422966682252,228.1472973797085 11.749639176305571,228.1472973797085 11.749639176305571,221.8354237391499 11.129632264753115,221.8354237391499 11.129632264753115,215.74207712479418 12.344235968532109,215.74207712479418 12.344235968532109,209.37430122171853 12.03423251275588,209.37430122171853 12.03423251275588,203.41308722785763 13.970483605391012,203.41308722785763 13.970483605391012,197.6195800215478 16.47592137092676,197.6195800215478 16.47592137092676,191.62279186063057 18.005610554347165,191.62279186063057 18.005610554347165,185.98682739414144 20.780395584737665,185.98682739414144 20.780395584737665,179.27347386823328 20.007927957229686,179.27347386823328 20.007927957229686,174.08980952574552 24.048136930051022,174.08980952574552 24.048136930051022,168.9264732787185 27.83932673347834,168.9264732787185 27.83932673347834,162.72132213932878 28.83540341105442,162.72132213932878 28.83540341105442,156.67879576362492 30.38542068993556,156.67879576362492 30.38542068993556,150.9411908198321 32.712987620189864,150.9411908198321 32.712987620189864,146.45376374687456 37.581566483036205,146.45376374687456 37.581566483036205,139.60319557660642 37.73910922285691,139.60319557660642 37.73910922285691,135.532494460594 43.15146463927795,135.532494460594 43.15146463927795,128.71750045738216 43.690159168987456,128.71750045738216 43.690159168987456,124.31646779013275 48.3351289817657,124.31646779013275 48.3351289817657,119.80871262171448 52.685341410363264,119.80871262171448 52.685341410363264,113.97454922448316 55.05356453153904,113.97454922448316 55.05356453153904,110.00040656190922 60.044111967149796,110.00040656190922 60.044111967149796,103.08885410525887 61.14691114589474,103.08885410525887 61.14691114589474,98.54044274591914 65.39040107332345,98.54044274591914 65.39040107332345,93.23989185453215 68.73437277661456,93.23989185453215 68.73437277661456,91.14101599821113 75.65608928099526,91.14101599821113 75.65608928099526,86.69424511617507 79.86400504136768,86.69424511617507 79.86400504136768,80.86516374280893 82.70485638200557,80.86516374280893 82.70485638200557,75.76281178216414 86.38424166039884,75.76281178216414 86.38424166039884,72.38326591181672 91.67971052792063,72.38326591181672 91.67971052792063,67.07763299656455 95.27270140060578,67.07763299656455 95.27270140060578,65.50728762222268 101.99113695037911,65.50728762222268 101.99113695037911,59.44443315105808 105.08100746041103,59.44443315105808 105.08100746041103,56.6289919297461 110.71188990303499,56.6289919297461 110.71188990303499,53.67125404020897 116.18014758197305,53.67125404020897 116.18014758197305,49.44301018437582 120.7844612038298,49.44301018437582 120.7844612038298,48.070863740776126 127.2030573455573,48.070863740776126 127.2030573455573,43.751143455369665 131.78196084808815,43.751143455369665 131.78196084808815,38.35911613440937 135.85774398796576,38.35911613440937 135.85774398796576,35.28957371983819 141.28534547598235,35.28957371983819 141.28534547598235,35.84351432114325 148.481491269083,35.84351432114325 148.481491269083,33.216107982843084 154.0361433537292,33.216107982843084 154.0361433537292,29.628199134023134 159.18931555302584,29.628199134023134 159.18931555302584,25.91832171243876 164.36281584778322,25.91832171243876 164.36281584778322,26.878824222958553 171.3251885430854,26.878824222958553 171.3251885430854,24.00748073912955 176.81885634134937,24.00748073912955 176.81885634134937,21.039578801862053 182.34301628280446,21.039578801862053 182.34301628280446,21.49696094972862 188.88358099729638,21.49696094972862 188.88358099729638,19.565791880958674 194.7075803467973,19.565791880958674 194.7075803467973,18.08692293619011 200.65863029292785,18.08692293619011 200.65863029292785,15.047872664810034 206.29967678328217,15.047872664810034 206.29967678328217,14.565080397617548 212.48449982721118,14.565080397617548 212.48449982721118,13.54359360071555 218.56260036997134,13.54359360071555 218.56260036997134,13.584249791637022 224.77283353322628,13.584249791637022 224.77283353322628,10.260606183806638 230.61716097818794,10.260606183806638 230.61716097818794,9.57453296200679 236.7918199743866,9.57453296200679 236.7918199743866,11.846197629744069 243.1087756388104,11.846197629744069 243.1087756388104,12.044396560486248 249.25802451568313,12.044396560486248 249.25802451568313,9.112068790275039 255.40727339255585,9.112068790275039 255.40727339255585,10.509625353200658 261.57176834102415,10.509625353200658 261.57176834102415,10.250442136076272 267.7718374565487,10.250442136076272 267.7718374565487,11.45996381599008 273.88043014249996,11.45996381599008 273.88043014249996,9.442400341512004 280.2990262842274,9.442400341512004 280.2990262842274,11.414225601203423 286.32630658833574,11.414225601203423 286.32630658833574,12.105380846868457 292.4958835606692,12.105380846868457 292.4958835606692,12.730469782286098 298.69087065232856,12.730469782286098 298.69087065232856,15.149513142113715 304.5351980972903,15.149513142113715 304.5351980972903,15.947390888947615 310.70477506962374,15.947390888947615 310.70477506962374,17.228060902974 316.78287561238386,17.228060902974 316.78287561238386,20.063830219746713 322.418840078873,20.063830219746713 322.418840078873,19.957107718577845 328.93907669790417,19.957107718577845 328.93907669790417,22.513365722765435 334.6411074746407,22.513365722765435 334.6411074746407,24.607159555221273 340.4905169434676,24.607159555221273 340.4905169434676,28.06293578354644 345.7910678348546,28.06293578354644 345.7910678348546,32.43347630760474 350.6291545545098,32.43347630760474 350.6291545545098,33.3075844124164 356.9766023621247,33.3075844124164 356.9766023621247,36.311060516740184 362.3737117069502,36.311060516740184 362.3737117069502,36.53975159067347 369.2242798772183,36.53975159067347 369.2242798772183,40.2648750838534 374.28597564694167,40.2648750838534 374.28597564694167,43.034578090378716 379.86603785091376,43.034578090378716 379.86603785091376,47.13068932571707 384.64314028418676,47.13068932571707 384.64314028418676,50.02744292887199 390.1622182017767,50.02744292887199 390.1622182017767,55.582095013518185 393.85176752790034,55.582095013518185 393.85176752790034,58.98705100319151 398.98461163173624,58.98705100319151 398.98461163173624,60.11017827739719 405.92157420771247,60.11017827739719 405.92157420771247,66.49828227593356 408.74209745288965,66.49828227593356 408.74209745288965,68.35830301059094 415.2877441912467,68.35830301059094 415.2877441912467,74.21279450328299 418.3776147012786,74.21279450328299 418.3776147012786,79.50826337080478 421.8435549773342,79.50826337080478 421.8435549773342,82.41009899782489 427.63198015977883,82.41009899782489 427.63198015977883,87.1922834549631 431.5756306791617,87.1922834549631 431.5756306791617,92.21332303376496 435.21944179049865,92.21332303376496 435.21944179049865,95.09991258918951 441.3280344764499,95.09991258918951 441.3280344764499,100.70030288862236 444.2908543898522,100.70030288862236 444.2908543898522,105.67052222877238 447.98040371597585,105.67052222877238 447.98040371597585,110.68139775984388 451.61405077958244,110.68139775984388 451.61405077958244,117.14573211635802 453.12341186754213,117.14573211635802 453.12341186754213,119.58510357164637 460.5939869493627,119.58510357164637 460.5939869493627,127.0099404386803 460.4415262334072,127.0099404386803 460.4415262334072,132.50869026080946 463.2010651922021,132.50869026080946 463.2010651922021,136.56414530522636 468.5422722745106,136.56414530522636 468.5422722745106,141.15321285548757 473.1669139918281,141.15321285548757 473.1669139918281,147.29229768462992 474.8185717480129,147.29229768462992 474.8185717480129,154.224178236741 474.55938853088855,154.224178236741 474.55938853088855,160.02784949078122 476.5820340292318,160.02784949078122 476.5820340292318,165.3538105014941 479.75829894497184,165.3538105014941 479.75829894497184,169.8920578131035 485.2519667432358,169.8920578131035 485.2519667432358,176.63590348220276 484.73868233285225,176.63590348220276 484.73868233285225,182.8766287886488 485.4247555546521,182.8766287886488 485.4247555546521,188.43636289716017 488.30626308621146,188.43636289716017 488.30626308621146,193.60478116805237 492.9918890899112,193.60478116805237 492.9918890899112,200.62305612587156 490.25267822657696,200.62305612587156 490.25267822657696,206.29459475941698 493.18500599678816,206.29459475941698 493.18500599678816,212.42859756469417 493.95239160043093,212.42859756469417 493.95239160043093,218.46095989266766 495.33978411562623,218.46095989266766 495.33978411562623,224.3154513853597 498.3635883154107,224.3154513853597 498.3635883154107,230.55617669180575 498.5668692700181,230.55617669180575 498.5668692700181,236.97477283353322 496.00044721810013,236.97477283353322 496.00044721810013,242.98172504218078 499.2122863008965,242.98172504218078 499.2122863008965,249.25802451568313 496.22913829203344,249.25802451568313 496.22913829203344,255.39710934482548 "/>
<circle fill="black" stroke="none" r="2" cx="497.4234139003517" cy="255.39710934482548" />
<circle fill="black" stroke="none" r="2" cx="497.4234139003517" cy="261.6022604842152" />
<circle fill="black" stroke="none" r="2" cx="498.64309962799587" cy="261.6022604842152" />
<circle fill="black" stroke="none" r="2" cx="498.64309962799587" cy="267.76167340881835" />
<circle fill="black" stroke="none" r="2" cx="497.78423759477977" cy="267.76167340881835" />
<circle fill="black" stroke="none" r="2" cx="497.78423759477977" cy="273.79403573679184" />
<circle fill="black" stroke="none" r="2" cx="495.6447055475372" cy="273.79403573679184" />
<circle fill="black" stroke="none" r="2" cx="495.6447055475372" cy="280.1821397353282" />
<circle fill="black" stroke="none" r="2" cx="497.6775150936109" cy="280.1821397353282" />
<circle fill="black" stroke="none" r="2" cx="497.6775150936109" cy="286.1484357530543" />
<circle fill="black" stroke="none" r="2" cx="495.46683471225583" cy="286.1484357530543" />
<circle fill="black" stroke="none" r="2" cx="495.46683471225583" cy="291.96735307869005" />
<circle fill="black" stroke="none" r="2" cx="492.7682800398431" cy="291.96735307869005" />
<circle fill="black" stroke="none" r="2" cx="492.7682800398431" cy="298.41644136360867" />
<circle fill="black" stroke="none" r="2" cx="493.9778017197569" cy="298.41644136360867" />
<circle fill="black" stroke="none" r="2" cx="493.9778017197569" cy="304.0778159494237" />
<circle fill="black" stroke="none" r="2" cx="490.8777671619946" cy="304.0778159494237" />
<circle fill="black" stroke="none" r="2" cx="490.8777671619946" cy="310.63362673551114" />
<circle fill="black" stroke="none" r="2" cx="491.93991014981805" cy="310.63362673551114" />
<circle fill="black" stroke="none" r="2" cx="491.93991014981805" cy="316.1374585815055" />
<circle fill="black" stroke="none" r="2" cx="488.52987213627955" cy="316.1374585815055" />
<circle fill="black" stroke="none" r="2" cx="488.52987213627955" cy="323.0896672290773" />
<circle fill="black" stroke="none" r="2" cx="490.43563108572357" cy="323.0896672290773" />
<circle fill="black" stroke="none" r="2" cx="490.43563108572357" cy="328.23267538064357" />
<circle fill="black" stroke="none" r="2" cx="486.029516394609" cy="328.23267538064357" />
<circle fill="black" stroke="none" r="2" cx="486.029516394609" cy="333.57388246295204" />
<circle fill="black" stroke="none" r="2" cx="482.60931433334014" cy="333.57388246295204" />
<circle fill="black" stroke="none" r="2" cx="482.60931433334014" cy="339.7587055068811" />
<circle fill="black" stroke="none" r="2" cx="481.6437297989551" cy="339.7587055068811" />
<circle fill="black" stroke="none" r="2" cx="481.6437297989551" cy="346.2281218872604" />
<circle fill="black" stroke="none" r="2" cx="481.21175777041447" cy="346.2281218872604" />
<circle fill="black" stroke="none" r="2" cx="481.21175777041447" cy="352.2198280243124" />
<circle fill="black" stroke="none" r="2" cx="479.4178033460045" cy="352.2198280243124" />
<circle fill="black" stroke="none" r="2" cx="479.4178033460045" cy="357.96759701583557" />
<circle fill="black" stroke="none" r="2" cx="477.01400605777246" cy="357.96759701583557" />
<circle fill="black" stroke="none" r="2" cx="477.01400605777246" cy="362.6430589718049" />
<circle fill="black" stroke="none" r="2" cx="472.4198564836461" cy="362.6430589718049" />
<circle fill="black" stroke="none" r="2" cx="472.4198564836461" cy="367.51163783465125" />
<circle fill="black" stroke="none" r="2" cx="468.415221677881" cy="367.51163783465125" />
<circle fill="black" stroke="none" r="2" cx="468.415221677881" cy="373.79810135588394" />
<circle fill="black" stroke="none" r="2" cx="467.063403329742" cy="373.79810135588394" />
<circle fill="black" stroke="none" r="2" cx="467.063403329742" cy="378.9665196267762" />
<circle fill="black" stroke="none" r="2" cx="463.64828329233836" cy="378.9665196267762" />
<circle fill="black" stroke="none" r="2" cx="463.64828329233836" cy="384.4093671863883" />
<circle fill="black" stroke="none" r="2" cx="460.7007094505316" cy="384.4093671863883" />
<circle fill="black" stroke="none" r="2" cx="460.7007094505316" cy="390.7568149940032" />
<circle fill="black" stroke="none" r="2" cx="459.05921574207713" cy="390.7568149940032" />
<circle fill="black" stroke="none" r="2" cx="459.05921574207713" cy="394.34472384282316" />
<circle fill="black" stroke="none" r="2" cx="453.31144675055396" cy="394.34472384282316" />
<circle fill="black" stroke="none" r="2" cx="453.31144675055396" cy="399.7215050921879" />
<circle fill="black" stroke="none" r="2" cx="450.20633016892646" cy="399.7215050921879" />
<circle fill="black" stroke="none" r="2" cx="450.20633016892646" cy="404.5494277641128" />
<circle fill="black" stroke="none" r="2" cx="446.3338279836562" cy="404.5494277641128" />
<circle fill="black" stroke="none" r="2" cx="446.3338279836562" cy="409.15374138596957" />
<circle fill="black" stroke="none" r="2" cx="442.19706055739636" cy="409.15374138596957" />
<circle fill="black" stroke="none" r="2" cx="442.19706055739636" cy="414.58134287398616" />
<circle fill="black" stroke="none" r="2" cx="439.0309596893867" cy="414.58134287398616" />
<circle fill="black" stroke="none" r="2" cx="439.0309596893867" cy="418.4843372024475" />
<circle fill="black" stroke="none" r="2" cx="434.10647856402335" cy="418.4843372024475" />
<circle fill="black" stroke="none" r="2" cx="434.10647856402335" cy="423.1293070152257" />
<circle fill="black" stroke="none" r="2" cx="430.0256134002805" cy="423.1293070152257" />
<circle fill="black" stroke="none" r="2" cx="430.0256134002805" cy="427.8708352814425" />
<circle fill="black" stroke="none" r="2" cx="426.0209785945155" cy="427.8708352814425" />
<circle fill="black" stroke="none" r="2" cx="426.0209785945155" cy="433.07990974325617" />
<circle fill="black" stroke="none" r="2" cx="422.4229056979652" cy="433.07990974325617" />
<circle fill="black" stroke="none" r="2" cx="422.4229056979652" cy="436.6322444250198" />
<circle fill="black" stroke="none" r="2" cx="417.2494054032078" cy="436.6322444250198" />
<circle fill="black" stroke="none" r="2" cx="417.2494054032078" cy="440.474254467099" />
<circle fill="black" stroke="none" r="2" cx="412.37574451649624" cy="440.474254467099" />
<circle fill="black" stroke="none" r="2" cx="412.37574451649624" cy="444.4585611774033" />
<circle fill="black" stroke="none" r="2" cx="407.62913422641435" cy="444.4585611774033" />
<circle fill="black" stroke="none" r="2" cx="407.62913422641435" cy="447.3959709714797" />
<circle fill="black" stroke="none" r="2" cx="402.0795641656333" cy="447.3959709714797" />
<circle fill="black" stroke="none" r="2" cx="402.0795641656333" cy="451.878316020572" />
<circle fill="black" stroke="none" r="2" cx="397.709023641575" cy="451.878316020572" />
<circle fill="black" stroke="none" r="2" cx="397.709023641575" cy="455.22736974772835" />
<circle fill="black" stroke="none" r="2" cx="392.49994917976136" cy="455.22736974772835" />
<circle fill="black" stroke="none" r="2" cx="392.49994917976136" cy="459.7046327729555" />
<circle fill="black" stroke="none" r="2" cx="388.03285020226457" cy="459.7046327729555" />
<circle fill="black" stroke="none" r="2" cx="388.03285020226457" cy="461.38678267233144" />
<circle fill="black" stroke="none" r="2" cx="381.76671477649256" cy="461.38678267233144" />
<circle fill="black" stroke="none" r="2" cx="381.76671477649256" cy="463.99894293903606" />
<circle fill="black" stroke="none" r="2" cx="376.15616042932936" cy="463.99894293903606" />
<circle fill="black" stroke="none" r="2" cx="376.15616042932936" cy="470.0211412192792" />
<circle fill="black" stroke="none" r="2" cx="372.4412009838798" cy="470.0211412192792" />
<circle fill="black" stroke="none" r="2" cx="372.4412009838798" cy="472.92297684629926" />
<circle fill="black" stroke="none" r="2" cx="366.9170410424247" cy="472.92297684629926" />
<circle fill="black" stroke="none" r="2" cx="366.9170410424247" cy="475.7892383062631" />
<circle fill="black" stroke="none" r="2" cx="361.3776350293741" cy="475.7892383062631" />
<circle fill="black" stroke="none" r="2" cx="361.3776350293741" cy="474.0308580489094" />
<circle fill="black" stroke="none" r="2" cx="353.73427113613724" cy="474.0308580489094" />
<circle fill="black" stroke="none" r="2" cx="353.73427113613724" cy="479.2602606061838" />
<circle fill="black" stroke="none" r="2" cx="349.3027463256968" cy="479.2602606061838" />
<circle fill="black" stroke="none" r="2" cx="349.3027463256968" cy="482.7414469538349" />
<circle fill="black" stroke="none" r="2" cx="344.0174415059053" cy="482.7414469538349" />
<circle fill="black" stroke="none" r="2" cx="344.0174415059053" cy="481.22192181814484" />
<circle fill="black" stroke="none" r="2" cx="336.8365417844002" cy="481.22192181814484" />
<circle fill="black" stroke="none" r="2" cx="336.8365417844002" cy="483.62063708251173" />
<circle fill="black" stroke="none" r="2" cx="331.1853312463155" cy="483.62063708251173" />
<circle fill="black" stroke="none" r="2" cx="331.1853312463155" cy="489.61742524342895" />
<circle fill="black" stroke="none" r="2" cx="326.61150976764986" cy="489.61742524342895" />
<circle fill="black" stroke="none" r="2" cx="326.61150976764986" cy="487.19329985973616" />
<circle fill="black" stroke="none" r="2" cx="319.4509381416055" cy="487.19329985973616" />
<circle fill="black" stroke="none" r="2" cx="319.4509381416055" cy="489.8461163173622" />
<circle fill="black" stroke="none" r="2" cx="313.79464557965565" cy="489.8461163173622" />
<circle fill="black" stroke="none" r="2" cx="313.79464557965565" cy="491.24875490415303" />
<circle fill="black" stroke="none" r="2" cx="307.79785741873843" cy="491.24875490415303" />
<circle fill="black" stroke="none" r="2" cx="307.79785741873843" cy="495.32453804403065" />
<circle fill="black" stroke="none" r="2" cx="302.32959973980036" cy="495.32453804403065" />
<circle fill="black" stroke="none" r="2" cx="302.32959973980036" cy="495.66503364299797" />
<circle fill="black" stroke="none" r="2" cx="296.0634643140284" cy="495.66503364299797" />
<circle fill="black" stroke="none" r="2" cx="296.0634643140284" cy="496.8389811558555" />
<circle fill="black" stroke="none" r="2" cx="289.9599536519423" cy="496.8389811558555" />
<circle fill="black" stroke="none" r="2" cx="289.9599536519423" cy="498.5211310552314" />
<circle fill="black" stroke="none" r="2" cx="283.90218120464294" cy="498.5211310552314" />
<circle fill="black" stroke="none" r="2" cx="283.90218120464294" cy="497.87571402435304" />
<circle fill="black" stroke="none" r="2" cx="277.57506149248877" cy="497.87571402435304" />
<circle fill="black" stroke="none" r="2" cx="277.57506149248877" cy="498.9835952269632" />
<circle fill="black" stroke="none" r="2" cx="271.4308946394812" cy="498.9835952269632" />
<circle fill="black" stroke="none" r="2" cx="271.4308946394812" cy="495.53798304636837" />
<circle fill="black" stroke="none" r="2" cx="265.04787266481003" cy="495.53798304636837" />
<circle fill="black" stroke="none" r="2" cx="265.04787266481003" cy="496.8034069887992" />
<circle fill="black" stroke="none" r="2" cx="258.94944402658916" cy="496.8034069887992" />
<circle fill="black" stroke="none" r="2" cx="258.94944402658916" cy="497.68259711747606" />
<circle fill="black" stroke="none" r="2" cx="252.79511312585123" cy="497.68259711747606" />
<circle fill="black" stroke="none" r="2" cx="252.79511312585123" cy="500" />
<circle fill="black" stroke="none" r="2" cx="246.5543878194052" cy="500" />
<circle fill="black" stroke="none" r="2" cx="246.5543878194052" cy="498.4194905779278" />
<circle fill="black" stroke="none" r="2" cx="240.4000569186673" cy="498.4194905779278" />
<circle fill="black" stroke="none" r="2" cx="240.4000569186673" cy="496.8847193706422" />
<circle fill="black" stroke="none" r="2" cx="234.3067103043116" cy="496.8847193706422" />
<circle fill="black" stroke="none" r="2" cx="234.3067103043116" cy="497.1235744923058" />
<circle fill="black" stroke="none" r="2" cx="228.07106702173073" cy="497.1235744923058" />
<circle fill="black" stroke="none" r="2" cx="228.07106702173073" cy="496.8084890126644" />
<circle fill="black" stroke="none" r="2" cx="221.86591588234097" cy="496.8084890126644" />
<circle fill="black" stroke="none" r="2" cx="221.86591588234097" cy="493.9422275527006" />
<circle fill="black" stroke="none" r="2" cx="216.04191653284005" cy="493.9422275527006" />
<circle fill="black" stroke="none" r="2" cx="216.04191653284005" cy="495.969955074909" />
<circle fill="black" stroke="none" r="2" cx="209.41495741264" cy="495.969955074909" />
<circle fill="black" stroke="none" r="2" cx="209.41495741264" cy="490.76088061309537" />
<circle fill="black" stroke="none" r="2" cx="204.14489866444413" cy="490.76088061309537" />
<circle fill="black" stroke="none" r="2" cx="204.14489866444413" cy="493.12910373427115" />
<circle fill="black" stroke="none" r="2" cx="197.28416644644562" cy="493.12910373427115" />
<circle fill="black" stroke="none" r="2" cx="197.28416644644562" cy="490.1307096538125" />
<circle fill="black" stroke="none" r="2" cx="191.63803793222613" cy="490.1307096538125" />
<circle fill="black" stroke="none" r="2" cx="191.63803793222613" cy="486.4970625902059" />
<circle fill="black" stroke="none" r="2" cx="186.2561746589962" cy="486.4970625902059" />
<circle fill="black" stroke="none" r="2" cx="186.2561746589962" cy="486.80706604598214" />
<circle fill="black" stroke="none" r="2" cx="179.7156099445043" cy="486.80706604598214" />
<circle fill="black" stroke="none" r="2" cx="179.7156099445043" cy="486.1209928241823" />
<circle fill="black" stroke="none" r="2" cx="173.4037363039457" cy="486.1209928241823" />
<circle fill="black" stroke="none" r="2" cx="173.4037363039457" cy="483.5393247006688" />
<circle fill="black" stroke="none" r="2" cx="167.72711564653508" cy="483.5393247006688" />
<circle fill="black" stroke="none" r="2" cx="167.72711564653508" cy="480.01748216209626" />
<circle fill="black" stroke="none" r="2" cx="162.45197487447402" cy="480.01748216209626" />
<circle fill="black" stroke="none" r="2" cx="162.45197487447402" cy="477.1969589169191" />
<circle fill="black" stroke="none" r="2" cx="156.94306100461446" cy="477.1969589169191" />
<circle fill="black" stroke="none" r="2" cx="156.94306100461446" cy="477.3748297522005" />
<circle fill="black" stroke="none" r="2" cx="150.06200069115525" cy="477.3748297522005" />
<circle fill="black" stroke="none" r="2" cx="150.06200069115525" cy="471.40345171060926" />
<circle fill="black" stroke="none" r="2" cx="146.06244790925538" cy="471.40345171060926" />
<circle fill="black" stroke="none" r="2" cx="146.06244790925538" cy="470.2498322932124" />
<circle fill="black" stroke="none" r="2" cx="139.71500010164047" cy="470.2498322932124" />
<circle fill="black" stroke="none" r="2" cx="139.71500010164047" cy="468.55243632224096" />
<circle fill="black" stroke="none" r="2" cx="133.56575122476775" cy="468.55243632224096" />
<circle fill="black" stroke="none" r="2" cx="133.56575122476775" cy="462.8351594739089" />
<circle fill="black" stroke="none" r="2" cx="129.7186591588234" cy="462.8351594739089" />
<circle fill="black" stroke="none" r="2" cx="129.7186591588234" cy="461.5494074360173" />
<circle fill="black" stroke="none" r="2" cx="123.24924277844408" cy="461.5494074360173" />
<circle fill="black" stroke="none" r="2" cx="123.24924277844408" cy="457.9208423962759" />
<circle fill="black" stroke="none" r="2" cx="118.20279308031631" cy="457.9208423962759" />
<circle fill="black" stroke="none" r="2" cx="118.20279308031631" cy="452.01044864106683" />
<circle fill="black" stroke="none" r="2" cx="114.77242697131706" cy="452.01044864106683" />
<circle fill="black" stroke="none" r="2" cx="114.77242697131706" cy="448.89516801170896" />
<circle fill="black" stroke="none" r="2" cx="109.45154798446933" cy="448.89516801170896" />
<circle fill="black" stroke="none" r="2" cx="109.45154798446933" cy="447.21810013619825" />
<circle fill="black" stroke="none" r="2" cx="102.95672148476409" cy="447.21810013619825" />
<circle fill="black" stroke="none" r="2" cx="102.95672148476409" cy="441.48049519240544" />
<circle fill="black" stroke="none" r="2" cx="99.63307787693371" cy="441.48049519240544" />
<circle fill="black" stroke="none" r="2" cx="99.63307787693371" cy="439.05128778484743" />
<circle fill="black" stroke="none" r="2" cx="93.59563352509504" cy="439.05128778484743" />
<circle fill="black" stroke="none" r="2" cx="93.59563352509504" cy="432.35826235440004" />
<circle fill="black" stroke="none" r="2" cx="91.3087227857622" cy="432.35826235440004" />
<circle fill="black" stroke="none" r="2" cx="91.3087227857622" cy="429.0905210090867" />
<circle fill="black" stroke="none" r="2" cx="85.96751570345374" cy="429.0905210090867" />
<circle fill="black" stroke="none" r="2" cx="85.96751570345374" cy="426.40721240826946" />
<circle fill="black" stroke="none" r="2" cx="79.94023539934544" cy="426.40721240826946" />
<circle fill="black" stroke="none" r="2" cx="79.94023539934544" cy="419.84123757445167" />
<circle fill="black" stroke="none" r="2" cx="77.86168763848515" cy="419.84123757445167" />
<circle fill="black" stroke="none" r="2" cx="77.86168763848515" cy="417.77793588518693" />
<circle fill="black" stroke="none" r="2" cx="70.97046327729555" cy="417.77793588518693" />
<circle fill="black" stroke="none" r="2" cx="70.97046327729555" cy="410.38867318520926" />
<circle fill="black" stroke="none" r="2" cx="70.06586302929279" cy="410.38867318520926" />
<circle fill="black" stroke="none" r="2" cx="70.06586302929279" cy="407.4766735104588" />
<circle fill="black" stroke="none" r="2" cx="63.931860224015615" cy="407.4766735104588" />
<circle fill="black" stroke="none" r="2" cx="63.931860224015615" cy="401.932185473543" />
<circle fill="black" stroke="none" r="2" cx="60.989368406074036" cy="401.932185473543" />
<circle fill="black" stroke="none" r="2" cx="60.989368406074036" cy="398.2985384099364" />
<circle fill="black" stroke="none" r="2" cx="55.510946679405606" cy="398.2985384099364" />
<circle fill="black" stroke="none" r="2" cx="55.510946679405606" cy="391.51403654991566" />
<circle fill="black" stroke="none" r="2" cx="54.3979834529303" cy="391.51403654991566" />
<circle fill="black" stroke="none" r="2" cx="54.3979834529303" cy="388.0226861545342" />
<circle fill="black" stroke="none" r="2" cx="48.50791779318196" cy="388.0226861545342" />
<circle fill="black" stroke="none" r="2" cx="48.50791779318196" cy="380.82145833756834" />
<circle fill="black" stroke="none" r="2" cx="48.34529302949607" cy="380.82145833756834" />
<circle fill="black" stroke="none" r="2" cx="48.34529302949607" cy="375.80550078263167" />
<circle fill="black" stroke="none" r="2" cx="44.80312239546277" cy="375.80550078263167" />
<circle fill="black" stroke="none" r="2" cx="44.80312239546277" cy="372.42087288841907" />
<circle fill="black" stroke="none" r="2" cx="38.21681946618421" cy="372.42087288841907" />
<circle fill="black" stroke="none" r="2" cx="38.21681946618421" cy="367.04409163905433" />
<circle fill="black" stroke="none" r="2" cx="35.035472526578985" cy="367.04409163905433" />
<circle fill="black" stroke="none" r="2" cx="35.035472526578985" cy="360.4984449006973" />
<circle fill="black" stroke="none" r="2" cx="34.21726668428435" cy="360.4984449006973" />
<circle fill="black" stroke="none" r="2" cx="34.21726668428435" cy="354.18657126013863" />
<circle fill="black" stroke="none" r="2" cx="33.16020572032606" cy="354.18657126013863" />
<circle fill="black" stroke="none" r="2" cx="33.16020572032606" cy="349.6584879962596" />
<circle fill="black" stroke="none" r="2" cx="28.09850995060273" cy="349.6584879962596" />
<circle fill="black" stroke="none" r="2" cx="28.09850995060273" cy="344.2512146037038" />
<circle fill="black" stroke="none" r="2" cx="24.851096700750105" cy="344.2512146037038" />
<circle fill="black" stroke="none" r="2" cx="24.851096700750105" cy="337.9647510824711" />
<circle fill="black" stroke="none" r="2" cx="23.88551216636513" cy="337.9647510824711" />
<circle fill="black" stroke="none" r="2" cx="23.88551216636513" cy="332.5117394751286" />
<circle fill="black" stroke="none" r="2" cx="20.627934868782145" cy="332.5117394751286" />
<circle fill="black" stroke="none" r="2" cx="20.627934868782145" cy="326.0118309515581" />
<circle fill="black" stroke="none" r="2" cx="20.531376415343647" cy="326.0118309515581" />
<circle fill="black" stroke="none" r="2" cx="20.531376415343647" cy="319.47126623706623" />
<circle fill="black" stroke="none" r="2" cx="20.92269225296282" cy="319.47126623706623" />
<circle fill="black" stroke="none" r="2" cx="20.92269225296282" cy="313.92169617628525" />
<circle fill="black" stroke="none" r="2" cx="17.848067814526456" cy="313.92169617628525" />
<circle fill="black" stroke="none" r="2" cx="17.848067814526456" cy="308.23491147114424" />
<circle fill="black" stroke="none" r="2" cx="15.007216473888562" cy="308.23491147114424" />
<circle fill="black" stroke="none" r="2" cx="15.007216473888562" cy="302.3245177159352" />
<circle fill="black" stroke="none" r="2" cx="12.90834061756754" cy="302.3245177159352" />
<circle fill="black" stroke="none" r="2" cx="12.90834061756754" cy="295.5857540707011" />
<circle fill="black" stroke="none" r="2" cx="15.271481714878133" cy="295.5857540707011" />
<circle fill="black" stroke="none" r="2" cx="15.271481714878133" cy="289.86339519850384" />
<circle fill="black" stroke="none" r="2" cx="11.99865834569959" cy="289.86339519850384" />
<circle fill="black" stroke="none" r="2" cx="11.99865834569959" cy="283.5261114386193" />
<circle fill="black" stroke="none" r="2" cx="12.74571585388165" cy="283.5261114386193" />
<circle fill="black" stroke="none" r="2" cx="12.74571585388165" cy="277.31587827536435" />
<circle fill="black" stroke="none" r="2" cx="13.015063118736405" cy="277.31587827536435" />
<circle fill="black" stroke="none" r="2" cx="13.015063118736405" cy="271.1818754700872" />
<circle fill="black" stroke="none" r="2" cx="12.750797877746834" cy="271.1818754700872" />
<circle fill="black" stroke="none" r="2" cx="12.750797877746834" cy="265.2257435000915" />
<circle fill="black" stroke="none" r="2" cx="8.766491167442522" cy="265.2257435000915" />
<circle fill="black" stroke="none" r="2" cx="8.766491167442522" cy="259.00534628910617" />
<circle fill="black" stroke="none" r="2" cx="8.791901286768443" cy="259.00534628910617" />
<circle fill="black" stroke="none" r="2" cx="8.791901286768443" cy="255.31071493911736" />
<circle fill="black" stroke="none" r="2" cx="481.3184802715834" cy="255.31071493911736" />
<circle fill="black" stroke="none" r="2" cx="481.3184802715834" cy="246.6153721057874" />
<circle fill="black" stroke="none" r="2" cx="10.204703921289614" cy="246.6153721057874" />
<circle fill="black" stroke="none" r="2" cx="10.204703921289614" cy="240.5525176346228" />
<circle fill="black" stroke="none" r="2" cx="12.552598947004656" cy="240.5525176346228" />
<circle fill="black" stroke="none" r="2" cx="12.552598947004656" cy="234.19490577927755" />
<circle fill="black" stroke="none" r="2" cx="10.001422966682252" cy="234.19490577927755" />
<circle fill="black" stroke="none" r="2" cx="10.001422966682252" cy="228.1472973797085" />
<circle fill="black" stroke="none" r="2" cx="11.749639176305571" cy="228.1472973797085" />
<circle fill="black" stroke="none" r="2" cx="11.749639176305571" cy="221.8354237391499" />
<circle fill="black" stroke="none" r="2" cx="11.129632264753115" cy="221.8354237391499" />
<circle fill="black" stroke="none" r="2" cx="11.129632264753115" cy="215.74207712479418" />
<circle fill="black" stroke="none" r="2" cx="12.344235968532109" cy="215.74207712479418" />
<circle fill="black" stroke="none" r="2" cx="12.344235968532109" cy="209.37430122171853" />
<circle fill="black" stroke="none" r="2" cx="12.03423251275588" cy="209.37430122171853" />
<circle fill="black" stroke="none" r="2" cx="12.03423251275588" cy="203.41308722785763" />
<circle fill="black" stroke="none" r="2" cx="13.970483605391012" cy="203.41308722785763" />
<circle fill="black" stroke="none" r="2" cx="13.970483605391012" cy="197.6195800215478" />
<circle fill="black" stroke="none" r="2" cx="16.47592137092676" cy="197.6195800215478" />
<circle fill="black" stroke="none" r="2" cx="16.47592137092676" cy="191.62279186063057" />
<circle fill="black" stroke="none" r="2" cx="18.005610554347165" cy="191.62279186063057" />
<circle fill="black" stroke="none" r="2" cx="18.005610554347165" cy="185.98682739414144" />
<circle fill="black" stroke="none" r="2" cx="20.780395584737665" cy="185.98682739414144" />
<circle fill="black" stroke="none" r="2" cx="20.780395584737665" cy="179.27347386823328" />
<circle fill="black" stroke="none" r="2" cx="20.007927957229686" cy="179.27347386823328" />
<circle fill="black" stroke="none" r="2" cx="20.007927957229686" cy="174.08980952574552" />
<circle fill="black" stroke="none" r="2" cx="24.048136930051022" cy="174.08980952574552" />
<circle fill="black" stroke="none" r="2" cx="24.048136930051022" cy="168.9264732787185" />
<circle fill="black" stroke="none" r="2" cx="27.83932673347834" cy="168.9264732787185" />
<circle fill="black" stroke="none" r="2" cx="27.83932673347834" cy="162.72132213932878" />
<circle fill="black" stroke="none" r="2" cx="28.83540341105442" cy="162.72132213932878" />
<circle fill="black" stroke="none" r="2" cx="28.83540341105442" cy="156.67879576362492" />
<circle fill="black" stroke="none" r="2" cx="30.38542068993556" cy="156.67879576362492" />
<circle fill="black" stroke="none" r="2" cx="30.38542068993556" cy="150.9411908198321" />
<circle fill="black" stroke="none" r="2" cx="32.712987620189864" cy="150.9411908198321" />
<circle fill="black" stroke="none" r="2" cx="32.712987620189864" cy="146.45376374687456" />
<circle fill="black" stroke="none" r="2" cx="37.581566483036205" cy="146.45376374687456" />
<circle fill="black" stroke="none" r="2" cx="37.581566483036205" cy="139.60319557660642" />
<circle fill="black" stroke="none" r="2" cx="37.73910922285691" cy="139.60319557660642" />
<circle fill="black" stroke="none" r="2" cx="37.73910922285691" cy="135.532494460594" />
<circle fill="black" stroke="none" r="2" cx="43.15146463927795" cy="135.532494460594" />
<circle fill="black" stroke="none" r="2" cx="43.15146463927795" cy="128.71750045738216" />
<circle fill="black" stroke="none" r="2" cx="43.690159168987456" cy="128.71750045738216" />
<circle fill="black" stroke="none" r="2" cx="43.690159168987456" cy="124.31646779013275" />
<circle fill="black" stroke="none" r="2" cx="48.3351289817657" cy="124.31646779013275" />
<circle fill="black" stroke="none" r="2" cx="48.3351289817657" cy="119.80871262171448" />
<circle fill="black" stroke="none" r="2" cx="52.685341410363264" cy="119.80871262171448" />
<circle fill="black" stroke="none" r="2" cx="52.685341410363264" cy="113.97454922448316" />
<circle fill="black" stroke="none" r="2" cx="55.05356453153904" cy="113.97454922448316" />
<circle fill="black" stroke="none" r="2" cx="55.05356453153904" cy="110.00040656190922" />
<circle fill="black" stroke="none" r="2" cx="60.044111967149796" cy="110.00040656190922" />
<circle fill="black" stroke="none" r="2" cx="60.044111967149796" cy="103.08885410525887" />
<circle fill="black" stroke="none" r="2" cx="61.14691114589474" cy="103.08885410525887" />
<circle fill="black" stroke="none" r="2" cx="61.14691114589474" cy="98.54044274591914" />
<circle fill="black" stroke="none" r="2" cx="65.39040107332345" cy="98.54044274591914" />
<circle fill="black" stroke="none" r="2" cx="65.39040107332345" cy="93.23989185453215" />
<circle fill="black" stroke="none" r="2" cx="68.73437277661456" cy="93.23989185453215" />
<circle fill="black" stroke="none" r="2" cx="68.73437277661456" cy="91.14101599821113" />
<circle fill="black" stroke="none" r="2" cx="75.65608928099526" cy="91.14101599821113" />
<circle fill="black" stroke="none" r="2" cx="75.65608928099526" cy="86.69424511617507" />
<circle fill="black" stroke="none" r="2" cx="79.86400504136768" cy="86.69424511617507" />
<circle fill="black" stroke="none" r="2" cx="79.86400504136768" cy="80.86516374280893" />
<circle fill="black" stroke="none" r="2" cx="82.70485638200557" cy="80.86516374280893" />
<circle fill="black" stroke="none" r="2" cx="82.70485638200557" cy="75.76281178216414" />
<circle fill="black" stroke="none" r="2" cx="86.38424166039884" cy="75.76281178216414" />
<circle fill="black" stroke="none" r="2" cx="86.38424166039884" cy="72.38326591181672" />
<circle fill="black" stroke="none" r="2" cx="91.67971052792063" cy="72.38326591181672" />
<circle fill="black" stroke="none" r="2" cx="91.67971052792063" cy="67.07763299656455" />
<circle fill="black" stroke="none" r="2" cx="95.27270140060578" cy="67.07763299656455" />
<circle fill="black" stroke="none" r="2" cx="95.27270140060578" cy="65.50728762222268" />
<circle fill="black" stroke="none" r="2" cx="101.99113695037911" cy="65.50728762222268" />
<circle fill="black" stroke="none" r="2" cx="101.99113695037911" cy="59.44443315105808" />
<circle fill="black" stroke="none" r="2" cx="105.08100746041103" cy="59.44443315105808" />
<circle fill="black" stroke="none" r="2" cx="105.08100746041103" cy="56.6289919297461" />
<circle fill="black" stroke="none" r="2" cx="110.71188990303499" cy="56.6289919297461" />
<circle fill="black" stroke="none" r="2" cx="110.71188990303499" cy="53.67125404020897" />
<circle fill="black" stroke="none" r="2" cx="116.18014758197305" cy="53.67125404020897" />
<circle fill="black" stroke="none" r="2" cx="116.18014758197305" cy="49.44301018437582" />
<circle fill="black" stroke="none" r="2" cx="120.7844612038298" cy="49.44301018437582" />
<circle fill="black" stroke="none" r="2" cx="120.7844612038298" cy="48.070863740776126" />
<circle fill="black" stroke="none" r="2" cx="127.2030573455573" cy="48.070863740776126" />
<circle fill="black" stroke="none" r="2" cx="127.2030573455573" cy="43.751143455369665" />
<circle fill="black" stroke="none" r="2" cx="131.78196084808815" cy="43.751143455369665" />
<circle fill="black" stroke="none" r="2" cx="131.78196084808815" cy="38.35911613440937" />
<circle fill="black" stroke="none" r="2" cx="135.85774398796576" cy="38.35911613440937" />
<circle fill="black" stroke="none" r="2" cx="135.85774398796576" cy="35.28957371983819" />
<circle fill="black" stroke="none" r="2" cx="141.28534547598235" cy="35.28957371983819" />
<circle fill="black" stroke="none" r="2" cx="141.28534547598235" cy="35.84351432114325" />
<circle fill="black" stroke="none" r="2" cx="148.481491269083" cy="35.84351432114325" />
<circle fill="black" stroke="none" r="2" cx="148.481491269083" cy="33.216107982843084" />
<circle fill="black" stroke="none" r="2" cx="154.0361433537292" cy="33.216107982843084" />
<circle fill="black" stroke="none" r="2" cx="154.0361433537292" cy="29.628199134023134" />
<circle fill="black" stroke="none" r="2" cx="159.18931555302584" cy="29.628199134023134" />
<circle fill="black" stroke="none" r="2" cx="159.18931555302584" cy="25.91832171243876" />
<circle fill="black" stroke="none" r="2" cx="164.36281584778322" cy="25.91832171243876" />
<circle fill="black" stroke="none" r="2" cx="164.36281584778322" cy="26.878824222958553" />
<circle fill="black" stroke="none" r="2" cx="171.3251885430854" cy="26.878824222958553" />
<circle fill="black" stroke="none" r="2" cx="171.3251885430854" cy="24.00748073912955" />
<circle fill="black" stroke="none" r="2" cx="176.81885634134937" cy="24.00748073912955" />
<circle fill="black" stroke="none" r="2" cx="176.81885634134937" cy="21.039578801862053" />
<circle fill="black" stroke="none" r="2" cx="182.34301628280446" cy="21.039578801862053" />
<circle fill="black" stroke="none" r="2" cx="182.34301628280446" cy="21.49696094972862" />
<circle fill="black" stroke="none" r="2" cx="188.88358099729638" cy="21.49696094972862" />
<circle fill="black" stroke="none" r="2" cx="188.88358099729638" cy="19.565791880958674" />
<circle fill="black" stroke="none" r="2" cx="194.7075803467973" cy="19.565791880958674" />
<circle fill="black" stroke="none" r="2" cx="194.7075803467973" cy="18.08692293619011" />
<circle fill="black" stroke="none" r="2" cx="200.65863029292785" cy="18.08692293619011" />
<circle fill="black" stroke="none" r="2" cx="200.65863029292785" cy="15.047872664810034" />
<circle fill="black" stroke="none" r="2" cx="206.29967678328217" cy="15.047872664810034" />
<circle fill="black" stroke="none" r="2" cx="206.29967678328217" cy="14.565080397617548" />
<circle fill="black" stroke="none" r="2" cx="212.48449982721118" cy="14.565080397617548" />
<circle fill="black" stroke="none" r="2" cx="212.48449982721118" cy="13.54359360071555" />
<circle fill="black" stroke="none" r="2" cx="218.56260036997134" cy="13.54359360071555" />
<circle fill="black" stroke="none" r="2" cx="218.56260036997134" cy="13.584249791637022" />
<circle fill="black" stroke="none" r="2" cx="224.77283353322628" cy="13.584249791637022" />
<circle fill="black" stroke="none" r="2" cx="224.77283353322628" cy="10.260606183806638" />
<circle fill="black" stroke="none" r="2" cx="230.61716097818794" cy="10.260606183806638" />
<circle fill="black" stroke="none" r="2" cx="230.61716097818794" cy="9.57453296200679" />
<circle fill="black" stroke="none" r="2" cx="236.7918199743866" cy="9.57453296200679" />
<circle fill="black" stroke="none" r="2" cx="236.7918199743866" cy="11.846197629744069" />
<circle fill="black" stroke="none" r="2" cx="243.1087756388104" cy="11.846197629744069" />
<circle fill="black" stroke="none" r="2" cx="243.1087756388104" cy="12.044396560486248" />
<circle fill="black" stroke="none" r="2" cx="249.25802451568313" cy="12.044396560486248" />
<circle fill="black" stroke="none" r="2" cx="249.25802451568313" cy="9.112068790275039" />
<circle fill="black" stroke="none" r="2" cx="255.40727339255585" cy="9.112068790275039" />
<circle fill="black" stroke="none" r="2" cx="255.40727339255585" cy="10.509625353200658" />
<circle fill="black" stroke="none" r="2" cx="261.57176834102415" cy="10.509625353200658" />
<circle fill="black" stroke="none" r="2" cx="261.57176834102415" cy="10.250442136076272" />
<circle fill="black" stroke="none" r="2" cx="267.7718374565487" cy="10.250442136076272" />
<circle fill="black" stroke="none" r="2" cx="267.7718374565487" cy="11.45996381599008" />
<circle fill="black" stroke="none" r="2" cx="273.88043014249996" cy="11.45996381599008" />
<circle fill="black" stroke="none" r="2" cx="273.88043014249996" cy="9.442400341512004" />
<circle fill="black" stroke="none" r="2" cx="280.2990262842274" cy="9.442400341512004" />
<circle fill="black" stroke="none" r="2" cx="280.2990262842274" cy="11.414225601203423" />
<circle fill="black" stroke="none" r="2" cx="286.32630658833574" cy="11.414225601203423" />
<circle fill="black" stroke="none" r="2" cx="286.32630658833574" cy="12.105380846868457" />
<circle fill="black" stroke="none" r="2" cx="292.4958835606692" cy="12.105380846868457" />
<circle fill="black" stroke="none" r="2" cx="292.4958835606692" cy="12.730469782286098" />
<circle fill="black" stroke="none" r="2" cx="298.69087065232856" cy="12.730469782286098" />
<circle fill="black" stroke="none" r="2" cx="298.69087065232856" cy="15.149513142113715" />
<circle fill="black" stroke="none" r="2" cx="304.5351980972903" cy="15.149513142113715" />
<circle fill="black" stroke="none" r="2" cx="304.5351980972903" cy="15.947390888947615" />
<circle fill="black" stroke="none" r="2" cx="310.70477506962374" cy="15.947390888947615" />
<circle fill="black" stroke="none" r="2" cx="310.70477506962374" cy="17.228060902974" />
<circle fill="black" stroke="none" r="2" cx="316.78287561238386" cy="17.228060902974" />
<circle fill="black" stroke="none" r="2" cx="316.78287561238386" cy="20.063830219746713" />
<circle fill="black" stroke="none" r="2" cx="322.418840078873" cy="20.063830219746713" />
<circle fill="black" stroke="none" r="2" cx="322.418840078873" cy="19.957107718577845" />
<circle fill="black" stroke="none" r="2" cx="328.93907669790417" cy="19.957107718577845" />
<circle fill="black" stroke="none" r="2" cx="328.93907669790417" cy="22.513365722765435" />
<circle fill="black" stroke="none" r="2" cx="334.6411074746407" cy="22.513365722765435" />
<circle fill="black" stroke="none" r="2" cx="334.6411074746407" cy="24.607159555221273" />
<circle fill="black" stroke="none" r="2" cx="340.4905169434676" cy="24.607159555221273" />
<circle fill="black" stroke="none" r="2" cx="340.4905169434676" cy="28.06293578354644" />
<circle fill="black" stroke="none" r="2" cx="345.7910678348546" cy="28.06293578354644" />
<circle fill="black" stroke="none" r="2" cx="345.7910678348546" cy="32.43347630760474" />
<circle fill="black" stroke="none" r="2" cx="350.6291545545098" cy="32.43347630760474" />
<circle fill="black" stroke="none" r="2" cx="350.6291545545098" cy="33.3075844124164" />
<circle fill="black" stroke="none" r="2" cx="356.9766023621247" cy="33.3075844124164" />
<circle fill="black" stroke="none" r="2" cx="356.9766023621247" cy="36.311060516740184" />
<circle fill="black" stroke="none" r="2" cx="362.3737117069502" cy="36.311060516740184" />
<circle fill="black" stroke="none" r="2" cx="362.3737117069502" cy="36.53975159067347" />
<circle fill="black" stroke="none" r="2" cx="369.2242798772183" cy="36.53975159067347" />
<circle fill="black" stroke="none" r="2" cx="369.2242798772183" cy="40.2648750838534" />
<circle fill="black" stroke="none" r="2" cx="374.28597564694167" cy="40.2648750838534" />
<circle fill="black" stroke="none" r="2" cx="374.28597564694167" cy="43.034578090378716" />
<circle fill="black" stroke="none" r="2" cx="379.86603785091376" cy="43.034578090378716" />
<circle fill="black" stroke="none" r="2" cx="379.86603785091376" cy="47.13068932571707" />
<circle fill="black" stroke="none" r="2" cx="384.64314028418676" cy="47.13068932571707" />
<circle fill="black" stroke="none" r="2" cx="384.64314028418676" cy="50.02744292887199" />
<circle fill="black" stroke="none" r="2" cx="390.1622182017767" cy="50.02744292887199" />
<circle fill="black" stroke="none" r="2" cx="390.1622182017767" cy="55.582095013518185" />
<circle fill="black" stroke="none" r="2" cx="393.85176752790034" cy="55.582095013518185" />
<circle fill="black" stroke="none" r="2" cx="393.85176752790034" cy="58.98705100319151" />
<circle fill="black" stroke="none" r="2" cx="398.98461163173624" cy="58.98705100319151" />
<circle fill="black" stroke="none" r="2" cx="398.98461163173624" cy="60.11017827739719" />
<circle fill="black" stroke="none" r="2" cx="405.92157420771247" cy="60.11017827739719" />
<circle fill="black" stroke="none" r="2" cx="405.92157420771247" cy="66.49828227593356" />
<circle fill="black" stroke="none" r="2" cx="408.74209745288965" cy="66.49828227593356" />
<circle fill="black" stroke="none" r="2" cx="408.74209745288965" cy="68.35830301059094" />
<circle fill="black" stroke="none" r="2" cx="415.2877441912467" cy="68.35830301059094" />
<circle fill="black" stroke="none" r="2" cx="415.2877441912467" cy="74.21279450328299" />
<circle fill="black" stroke="none" r="2" cx="418.3776147012786" cy="74.21279450328299" />
<circle fill="black" stroke="none" r="2" cx="418.3776147012786" cy="79.50826337080478" />
<circle fill="black" stroke="none" r="2" cx="421.8435549773342" cy="79.50826337080478" />
<circle fill="black" stroke="none" r="2" cx="421.8435549773342" cy="82.41009899782489" />
<circle fill="black" stroke="none" r="2" cx="427.63198015977883" cy="82.41009899782489" />
<circle fill="black" stroke="none" r="2" cx="427.63198015977883" cy="87.1922834549631" />
<circle fill="black" stroke="none" r="2" cx="431.5756306791617" cy="87.1922834549631" />
<circle fill="black" stroke="none" r="2" cx="431.5756306791617" cy="92.21332303376496" />
<circle fill="black" stroke="none" r="2" cx="435.21944179049865" cy="92.21332303376496" />
<circle fill="black" stroke="none" r="2" cx="435.21944179049865" cy="95.09991258918951" />
<circle fill="black" stroke="none" r="2" cx="441.3280344764499" cy="95.09991258918951" />
<circle fill="black" stroke="none" r="2" cx="441.3280344764499" cy="100.70030288862236" />
<circle fill="black" stroke="none" r="2" cx="444.2908543898522" cy="100.70030288862236" />
<circle fill="black" stroke="none" r="2" cx="444.2908543898522" cy="105.67052222877238" />
<circle fill="black" stroke="none" r="2" cx="447.98040371597585" cy="105.67052222877238" />
<circle fill="black" stroke="none" r="2" cx="447.98040371597585" cy="110.68139775984388" />
<circle fill="black" stroke="none" r="2" cx="451.61405077958244" cy="110.68139775984388" />
<circle fill="black" stroke="none" r="2" cx="451.61405077958244" cy="117.14573211635802" />
<circle fill="black" stroke="none" r="2" cx="453.12341186754213" cy="117.14573211635802" />
<circle fill="black" stroke="none" r="2" cx="453.12341186754213" cy="119.58510357164637" />
<circle fill="black" stroke="none" r="2" cx="460.5939869493627" cy="119.58510357164637" />
<circle fill="black" stroke="none" r="2" cx="460.5939869493627" cy="127.0099404386803" />
<circle fill="black" stroke="none" r="2" cx="460.4415262334072" cy="127.0099404386803" />
<circle fill="black" stroke="none" r="2" cx="460.4415262334072" cy="132.50869026080946" />
<circle fill="black" stroke="none" r="2" cx="463.2010651922021" cy="132.50869026080946" />
<circle fill="black" stroke="none" r="2" cx="463.2010651922021" cy="136.56414530522636" />
<circle fill="black" stroke="none" r="2" cx="468.5422722745106" cy="136.56414530522636" />
<circle fill="black" stroke="none" r="2" cx="468.5422722745106" cy="141.15321285548757" />
<circle fill="black" stroke="none" r="2" cx="473.1669139918281" cy="141.15321285548757" />
<circle fill="black" stroke="none" r="2" cx="473.1669139918281" cy="147.29229768462992" />
<circle fill="black" stroke="none" r="2" cx="474.8185717480129" cy="147.29229768462992" />
<circle fill="black" stroke="none" r="2" cx="474.8185717480129" cy="154.224178236741" />
<circle fill="black" stroke="none" r="2" cx="474.55938853088855" cy="154.224178236741" />
<circle fill="black" stroke="none" r="2" cx="474.55938853088855" cy="160.02784949078122" />
<circle fill="black" stroke="none" r="2" cx="476.5820340292318" cy="160.02784949078122" />
<circle fill="black" stroke="none" r="2" cx="476.5820340292318" cy="165.3538105014941" />
<circle fill="black" stroke="none" r="2" cx="479.75829894497184" cy="165.3538105014941" />
<circle fill="black" stroke="none" r="2" cx="479.75829894497184" cy="169.8920578131035" />
<circle fill="black" stroke="none" r="2" cx="485.2519667432358" cy="169.8920578131035" />
<circle fill="black" stroke="none" r="2" cx="485.2519667432358" cy="176.63590348220276" />
<circle fill="black" stroke="none" r="2" cx="484.73868233285225" cy="176.63590348220276" />
<circle fill="black" stroke="none" r="2" cx="484.73868233285225" cy="182.8766287886488" />
<circle fill="black" stroke="none" r="2" cx="485.4247555546521" cy="182.8766287886488" />
<circle fill="black" stroke="none" r="2" cx="485.4247555546521" cy="188.43636289716017" />
<circle fill="black" stroke="none" r="2" cx="488.30626308621146" cy="188.43636289716017" />
<circle fill="black" stroke="none" r="2" cx="488.30626308621146" cy="193.60478116805237" />
<circle fill="black" stroke="none" r="2" cx="492.9918890899112" cy="193.60478116805237" />
<circle fill="black" stroke="none" r="2" cx="492.9918890899112" cy="200.62305612587156" />
<circle fill="black" stroke="none" r="2" cx="490.25267822657696" cy="200.62305612587156" />
<circle fill="black" stroke="none" r="2" cx="490.25267822657696" cy="206.29459475941698" />
<circle fill="black" stroke="none" r="2" cx="493.18500599678816" cy="206.29459475941698" />
<circle fill="black" stroke="none" r="2" cx="493.18500599678816" cy="212.42859756469417" />
<circle fill="black" stroke="none" r="2" cx="493.95239160043093" cy="212.42859756469417" />
<circle fill="black" stroke="none" r="2" cx="493.95239160043093" cy="218.46095989266766" />
<circle fill="black" stroke="none" r="2" cx="495.33978411562623" cy="218.46095989266766" />
<circle fill="black" stroke="none" r="2" cx="495.33978411562623" cy="224.3154513853597" />
<circle fill="black" stroke="none" r="2" cx="498.3635883154107" cy="224.3154513853597" />
<circle fill="black" stroke="none" r="2" cx="498.3635883154107" cy="230.55617669180575" />
<circle fill="black" stroke="none" r="2" cx="498.5668692700181" cy="230.55617669180575" />
<circle fill="black" stroke="none" r="2" cx="498.5668692700181" cy="236.97477283353322" />
<circle fill="black" stroke="none" r="2" cx="496.00044721810013" cy="236.97477283353322" />
<circle fill="black" stroke="none" r="2" cx="496.00044721810013" cy="242.98172504218078" />
<circle fill="black" stroke="none" r="2" cx="499.2122863008965" cy="242.98172504218078" />
<circle fill="black" stroke="none" r="2" cx="499.2122863008965" cy="249.25802451568313" />
<circle fill="black" stroke="none" r="2" cx="496.22913829203344" cy="249.25802451568313" />
<circle fill="black" stroke="none" r="2" cx="496.22913829203344" cy="255.39710934482548" />
<polygon fill="rgba(250, 100, 100, 0.5)" points="93.59563352509504,439.05128778484743 415.2877441912467,439.05128778484743 415.2877441912467,68.35830301059094 93.59563352509504,68.35830301059094 "/>
</svg>
